<mxfile host="Electron" agent="Mozilla/5.0 (Macintosh; Intel Mac OS X 10_15_7) AppleWebKit/537.36 (KHTML, like Gecko) draw.io/24.7.5 Chrome/126.0.6478.183 Electron/31.3.0 Safari/537.36" version="24.7.5" pages="3">
  <diagram id="cRJOyFGfK5C6SUc242eM" name="Page-1">
    <mxGraphModel dx="2388" dy="2392" grid="0" gridSize="10" guides="1" tooltips="1" connect="1" arrows="1" fold="1" page="1" pageScale="1" pageWidth="850" pageHeight="1100" math="0" shadow="0">
      <root>
        <mxCell id="0" />
        <mxCell id="1" parent="0" />
        <mxCell id="67Oz3dFfI7quKX-kB1Q3-9" value="" style="shape=image;verticalLabelPosition=bottom;labelBackgroundColor=#ffffff;verticalAlign=top;imageAspect=0;image=data:image/png,iVBORw0KGgoAAAANSUhEUgAABHIAAALmCAYAAAAubLODAAAAAXNSR0IArs4c6QAAAJBlWElmTU0AKgAAAAgABgEGAAMAAAABAAIAAAESAAMAAAABAAEAAAEaAAUAAAABAAAAVgEbAAUAAAABAAAAXgEoAAMAAAABAAIAAIdpAAQAAAABAAAAZgAAAAAAAACQAAAAAQAAAJAAAAABAAOgAQADAAAAAQABAACgAgAEAAAAAQAABHKgAwAEAAAAAQAAAuYAAAAASMA5egAAAAlwSFlzAAAWJQAAFiUBSVIk8AAAAm9pVFh0WE1MOmNvbS5hZG9iZS54bXAAAAAAADx4OnhtcG1ldGEgeG1sbnM6eD0iYWRvYmU6bnM6bWV0YS8iIHg6eG1wdGs9IlhNUCBDb3JlIDYuMC4wIj4KICAgPHJkZjpSREYgeG1sbnM6cmRmPSJodHRwOi8vd3d3LnczLm9yZy8xOTk5LzAyLzIyLXJkZi1zeW50YXgtbnMjIj4KICAgICAgPHJkZjpEZXNjcmlwdGlvbiByZGY6YWJvdXQ9IiIKICAgICAgICAgICAgeG1sbnM6dGlmZj0iaHR0cDovL25zLmFkb2JlLmNvbS90aWZmLzEuMC8iPgogICAgICAgICA8dGlmZjpSZXNvbHV0aW9uVW5pdD4yPC90aWZmOlJlc29sdXRpb25Vbml0PgogICAgICAgICA8dGlmZjpYUmVzb2x1dGlvbj4xNDQ8L3RpZmY6WFJlc29sdXRpb24+CiAgICAgICAgIDx0aWZmOllSZXNvbHV0aW9uPjE0NDwvdGlmZjpZUmVzb2x1dGlvbj4KICAgICAgICAgPHRpZmY6T3JpZW50YXRpb24+MTwvdGlmZjpPcmllbnRhdGlvbj4KICAgICAgICAgPHRpZmY6Q29tcHJlc3Npb24+MTwvdGlmZjpDb21wcmVzc2lvbj4KICAgICAgICAgPHRpZmY6UGhvdG9tZXRyaWNJbnRlcnByZXRhdGlvbj4yPC90aWZmOlBob3RvbWV0cmljSW50ZXJwcmV0YXRpb24+CiAgICAgIDwvcmRmOkRlc2NyaXB0aW9uPgogICA8L3JkZjpSREY+CjwveDp4bXBtZXRhPgpgtfwkAABAAElEQVR4Ae3de8x16VkW8LYULSiiiFBaKlXaUlRoIMphGum0IAiJigpIE6UFDZFqPBHRiBGPfxASUTSC1aCVhHqIoMFArOCpgRaUQ1FLpdhSpMhJykFoqdh631/3GtfsXu/063Sc75qZ35M831rvvdbe7/3+7vlnX9l7z6MeZREgQIAAAQIECBAgQIAAAQIECDwkBB49Xb71IdGpJgkQIECAAAECBAgQIECAAAECj3CBxzzC/35/PgECBAgQIECAAAECBAgQIEDgISPw2FOn++4ciwABAgQIECBAgAABAgQIECBAoE/g1ieqvCOnbzA6IkCAAAECBAgQIECAAAECBAhEAUFOZFEkQIAAAQIECBAgQIAAAQIECPQJCHL6ZqIjAgQIECBAgAABAgQIECBAgEAUEOREFkUCBAgQIECAAAECBAgQIECAQJ+AIKdvJjoiQIAAAQIECBAgQIAAAQIECEQBQU5kUSRAgAABAgQIECBAgAABAgQI9AkIcvpmoiMCBAgQIECAAAECBAgQIECAQBQQ5EQWRQIECBAgQIAAAQIECBAgQIBAn4Agp28mOiJAgAABAgQIECBAgAABAgQIRAFBTmRRJECAAAECBAgQIECAAAECBAj0CQhy+maiIwIECBAgQIAAAQIECBAgQIBAFBDkRBZFAgQIECBAgAABAgQIECBAgECfgCCnbyY6IkCAAAECBAgQIECAAAECBAhEAUFOZFEkQIAAAQIECBAgQIAAAQIECPQJCHL6ZqIjAgQIECBAgAABAgQIECBAgEAUEOREFkUCBAgQIECAAAECBAgQIECAQJ+AIKdvJjoiQIAAAQIECBAgQIAAAQIECEQBQU5kUSRAgAABAgQIECBAgAABAgQI9Ak8tq+lh01Hv33+kg+5/DUvnuMPhr/s903t8bN/dPaLwvUtvf/sz7pce/Mc//rl/PrwS6bwgkvx38/xW69uePL8fNfsZ8z+sNlvmP2Ky375HH9q9ruynjQPfu7sp83e85+Z/d9mv2z2P5/91tnX6xOm8BGz12aNmtYvnWY+79LQV8/x9U3N6YUAAQIECBAgQIAAAQIEHrkC+wI7vch+5Iq863/5L5qn+LGL69p+yQ1P+Y8v9/zcHN/9hns+93LPMacPveG+Tzzd9+lX9zx/fn7j6frxXMfxdXPtI2ffn/U+86D9O/7P7OP5ro/fPdeeOft6vXAKe+8GSW3rg6ah4++4u605/RAgQIAAAQIECBAgQIDAI07geI16z4vVR5zA/8c/+NPmuQ/gPf747F8cft85pPmYcH1LXzv7/Fx//Ib7/srlvg1UNlw51l+Yk+PxG+Z83ewvn/33Zv+H2ce1DZP2XUTvzHr63Lwh0PEcPzHn/3D2F8/e3/HK2ce1fYfOR88+L0HOWcM5AQIECBAgQIAAAQIECBC4WeB4fX3PC+2bb3XlnRX4+nnAAn/T7Ldczn/vHK/Xr53CMYjPv744P++7dH76cs+bLsd/Oce0XjrFfa7zR6r2o3P7Eaqtf9vs9599vT5pCm+cfdxzff2mn/ddR995edw+9m/Pfq/Z57XfwfSHZx8GPzTn50BLkHPWck6AAAECBAgQIECAAAECBG4W2Nfeu2/9c+vk5ntdeScEPnDuPT5m9JlzfgQs33zDc7xm6uv/NeH6sy7X9vn+5OV8A533nH1ej5sffn72Ps9fOl14zqW29Zve8bO3/5nLfRu4PHELt7G+YO7Z5939stkbGt209h06x72//3STIOeE4ZQAAQIECBAgQIAAAQIECNyHwK3X1fuOCeuBFXjePN26bijyktn7UaNdd83+8Ftn9/7nGy8/pu+Q+a2Xa98+x390Od93tNx9OT8OG9LsO2R27e881q84Tub4wafz69MNkfZ3/KvZT559O+v5l5t+co77Jce/cPk5HfY7gn529n+avV8ifDvrN8xNL579qtlvnv3a2fulyZ86+3rt37nvVNr9kdcX5+f3vVzb69cz2ODqb87e5//fs/f7fL509vW7i6ZkESBAgAABAgQIECBAgACBOy9wK9G58208LDp49PwV3zd7TTc02PV+szcg2Nrfmn29PmMKxwyeenXx+OjS8S6b77nc+zeu7vuiS30/hnV+Z8wGHBuw7PNvX8+e/UCsp8+THD2/6Daf8Aiazre/8PI8Lz8X5/xPzD76Pn7P+fhVc30/dnasJ8zJcf0Iv45re/yg0/WPP13YsOaVp2vHc+zxR071u+fcIkCAAAECBAgQIECAAAECd1LgeM16zwvgO9nMw+V3P2v+kAP2uac/at9JsvUNWq7fkbLvFjm+Q+b5c36sx8/JUX/mpfjX5rjP8+rLz8dhv4tn6//sKJyOX3m5dvT1uvl5A5QNkN5v9v1ZnzIPOp7vT92fJ7g8JgU5v3GuHcHXa+f8d8x+4uy7Zh9/5/7uPz37WPcnyNnQbb32ud48e7+j6MmzP2r2N84+/r493j3bIkCAAAECBAgQIECAAAECd1LgeJ16zwvWO9nMw+V3/4P5Qxb2J2e/x+mP+tRLfa/9wVP9OP2Oy/W/exTm+LxLbZ/reJfNJ19q+zxPmb1r3+nyc7O39oLZ12sDiy+evdfT3o8S/dnZv2z27a4/MDcez/XbbvdB4b4U5OxHvPa5/+fsX3n1mHebn//N7L2+H9X6gNm77k+Q85x53PE37Bcyn9d6n/+PXnefLzonQIAAAQIECBAgQIAAAQJ3QOB4DXvPi9k70MPD6lduELLhwsJuQHFe+zGgH529177rfOFyvt8hs9f2o1PH2u+H2do/PQpz3C85ftPsrR+B0F2Xn7d2hDtz+nbrGVP5q7NfOXvvvd77XTQfOvt21h+am47H/5bbecAN91wHOY+b+44viv7CGx5z/ns3INv1hNlHP7f70ap9B84+ZgOj/b3X63dP4XjOu68v+pkAAQIECBAgQIAAAQIECDzIArdeoz7mQf6lD+df95nzx23QsutnZn/6aW/g8JrZuzZQ+dhbZ//vn/0oz66nz953oexcPnH2ruO7dvZ833nz0j2Z9TFvOzzqWZfja+f4fZfzdHjFFPe7Z37d7CfN/qzZ+w6iN8ze9SGzv3X27YQ5P7wPuKzbuf+49x0dnzY3HP9NvvyGm/edMhv27Fqv+7t2Drs2PNtw7HqthUWAAAECBAgQIECAAAECBKoE9iMk1gMj8Dmnp9nA5L7W583Fl51u2HDmzbP3Y1LPnL3v3nmf2bvOQc7+/JLZnzD7CHI+bouzru97WzX/+4NT/qrL3i9E/tLZz5v9XrM3gPqLs+9rvf50cYOh21kb0mwQtb/7pvWrTxd+5HR+Pt3vz/mx2Y+f/YHnC+/k+REC/cQNj/sfU3/L7CNYuuE2ZQIECBAgQIAAAQIECBAg8OAJeJH6wFj/+nmaj7481ffP8dtv2EdosGHJvvPmWBtwfMvlh32e4+NKr5rz/XLi8zoCmw1G9ouSP/ZycQOe89qQbj9Gte+4+cvnC1fne/35s199qX/K5Xhfh/37fupyw4fd142na/9kzv/77P88e7+3J639PqBj7UfV0trHHiHX0cP5vvTf9K8633A5/4HLccOrtB43xfRc6V41AgQIECBAgAABAgQIECDwoAh4ofrAMH/O6Wk+ac73/7yU9p+73LchwWdfzo/D8fGq3zSF4+NSR2hz3LPH75697xbZQGN/73vP3o8a/evZ5/UL88Mvv+zfc75ww/l9vVPm+iH7rphvuBQ3SPqo6xuuft7rH36pfecc33p1/fjxCJP255s+svXBc23fubTrh992uPW/Kr+cxu+7ecpx8XT8j5fzp84xBUv7eywCBAgQIECAAAECBAgQIFAnsC+qb3phXddsYUPvPj3tR6HW8B19r8p+jOmNl3s3tDgHCPtOnH2O/X6dfYfOnn/y7LT+/hT3+n78aI/fPDutr5ziXt/9JbPfbXZaHzHFDWf2vi9MN4TaM6a2YdE+5r/MvuljTvvOo9dc7tt7nzn7WC+ck629/CjMcUOq4zlT0PgVl+t7z/Gxrg129ufd6d1HLzpd//g537Xvejoe8xm3Kvf+58tP1+++9yU/ESBAgAABAgQIECBAgACBB13geA17z4vZB72Dh8kv/J3zdxyY1/8b6/QnfvXp/g0TjrUhy3606HiuN835exwXr47PPd2393/R1fXjx/341X6c63jOl875587edws9Yfbds//87P1de8+GOUc4MqfvcH3Z3HE89w/N+R+b/QGzN6B6/OzPnr3v9Dnu2eDmvFKQs+8yOu5/8ZwfH33a5/yC2Ud49PVzfl7fOz/s4zYoe/bsvX9DpA12jufb4xHkrO3x7qANxH7z7GOt0RFs7WPuPi44EiBAgAABAgQIECBAgACBOyRwvLa950XuHerjIf9r/8X8BYu5L/zf9zb+mg0SDvyvubr/a0/XXnJ17fzj/p63nO7djzfdtJ46F141+/idNx038HnOTU9yQ33Dp78z+/o5j7DlXP+6ue+xV8+TgpwNYL7h9JwbMr1i9htOtW+a8+uQ64+cru/v3VBsP3K2599/Oe75EeTM6a13EW0AdfT56jk/fv5fp/rdc24RIECAAAECBAgQIECAAIE7KXC8dr3nReydbOah+rv3o1JHaLFBxe2sDSpeO3sHsOHP8cW9c/qofUfPMZjP38J9rP2Ol713A44NVO5rvfdc/IrZ3zV7g5Hjd+zx9bM3QNrA5/6u3zUP/Lezz897nO/Hrj5t9v7d12t72vu+5erC3vtHZ//47ON59vg9s/ddQO85O60XTHE9jses77+b/cTZxzuDnj3n57UfK/u22cdj9vgDs++a/fOX+sfN0SJAgAABAgQIECBAgAABAndS4Nbr1n3BvCe79tx6+Avsu2I2tHnC7FfO3u+keaDWfgzqSbM3ONlA5Xtn//Tsd2Vtn0+b/V9n306v+9/xU2Y/fvZ3zP7Z2bezfs3c9OTZ+30+r5ttESBAgAABAgQIECBAgACBJoFb+c2+6BXkNI1FLwQIECBAgAABAgQIECBAgACBtxe4ld885u3rKgQIECBAgAABAgQIECBAgAABAo0CgpzGqeiJAAECBAgQIECAAAECBAgQIBAEBDkBRYkAAQIECBAgQIAAAQIECBAg0CggyGmcip4IECBAgAABAgQIECBAgAABAkFAkBNQlAgQIECAAAECBAgQIECAAAECjQKCnMap6IkAAQIECBAgQIAAAQIECBAgEAQEOQFFiQABAgQIECBAgAABAgQIECDQKCDIaZyKnggQIECAAAECBAgQIECAAAECQUCQE1CUCBAgQIAAAQIECBAgQIAAAQKNAoKcxqnoiQABAgQIECBAgAABAgQIECAQBAQ5AUWJAAECBAgQIECAAAECBAgQINAoIMhpnIqeCBAgQIAAAQIECBAgQIAAAQJBQJATUJQIECBAgAABAgQIECBAgAABAo0CgpzGqeiJAAECBAgQIECAAAECBAgQIBAEBDkBRYkAAQIECBAgQIAAAQIECBAg0CggyGmcip4IECBAgAABAgQIECBAgAABAkFAkBNQlAgQIECAAAECBAgQIECAAAECjQKCnMap6IkAAQIECBAgQIAAAQIECBAgEAQEOQFFiQABAgQIECBAgAABAgQIECDQKCDIaZyKnggQIECAAAECBAgQIECAAAECQUCQE1CUCBAgQIAAAQIECBAgQIAAAQKNAoKcxqnoiQABAgQIECBAgAABAgQIECAQBAQ5AUWJAAECBAgQIECAAAECBAgQINAoIMhpnIqeCBAgQIAAAQIECBAgQIAAAQJBQJATUJQIECBAgAABAgQIECBAgAABAo0CgpzGqeiJAAECBAgQIECAAAECBAgQIBAEBDkBRYkAAQIECBAgQIAAAQIECBAg0CggyGmcip4IECBAgAABAgQIECBAgAABAkFAkBNQlAgQIECAAAECBAgQIECAAAECjQKCnMap6IkAAQIECBAgQIAAAQIECBAgEAQEOQFFiQABAgQIECBAgAABAgQIECDQKCDIaZyKnggQIECAAAECBAgQIECAAAECQUCQE1CUCBAgQIAAAQIECBAgQIAAAQKNAoKcxqnoiQABAgQIECBAgAABAgQIECAQBAQ5AUWJAAECBAgQIECAAAECBAgQINAoIMhpnIqeCBAgQIAAAQIECBAgQIAAAQJBQJATUJQIECBAgAABAgQIECBAgAABAo0CgpzGqeiJAAECBAgQIECAAAECBAgQIBAEBDkBRYkAAQIECBAgQIAAAQIECBAg0CggyGmcip4IECBAgAABAgQIECBAgAABAkFAkBNQlAgQIECAAAECBAgQIECAAAECjQKCnMap6IkAAQIECBAgQIAAAQIECBAgEAQEOQFFiQABAgQIECBAgAABAgQIECDQKCDIaZyKnggQIECAAAECBAgQIECAAAECQUCQE1CUCBAgQIAAAQIECBAgQIAAAQKNAoKcxqnoiQABAgQIECBAgAABAgQIECAQBAQ5AUWJAAECBAgQIECAAAECBAgQINAoIMhpnIqeCBAgQIAAAQIECBAgQIAAAQJBQJATUJQIECBAgAABAgQIECBAgAABAo0CgpzGqeiJAAECBAgQIECAAAECBAgQIBAEBDkBRYkAAQIECBAgQIAAAQIECBAg0CggyGmcip4IECBAgAABAgQIECBAgAABAkFAkBNQlAgQIECAAAECBAgQIECAAAECjQKCnMap6IkAAQIECBAgQIAAAQIECBAgEAQEOQFFiQABAgQIECBAgAABAgQIECDQKCDIaZyKnggQIECAAAECBAgQIECAAAECQUCQE1CUCBAgQIAAAQIECBAgQIAAAQKNAoKcxqnoiQABAgQIECBAgAABAgQIECAQBAQ5AUWJAAECBAgQIECAAAECBAgQINAoIMhpnIqeCBAgQIAAAQIECBAgQIAAAQJBQJATUJQIECBAgAABAgQIECBAgAABAo0CgpzGqeiJAAECBAgQIECAAAECBAgQIBAEBDkBRYkAAQIECBAgQIAAAQIECBAg0CggyGmcip4IECBAgAABAgQIECBAgAABAkFAkBNQlAgQIECAAAECBAgQIECAAAECjQKCnMap6IkAAQIECBAgQIAAAQIECBAgEAQEOQFFiQABAgQIECBAgAABAgQIECDQKCDIaZyKnggQIECAAAECBAgQIECAAAECQUCQE1CUCBAgQIAAAQIECBAgQIAAAQKNAoKcxqnoiQABAgQIECBAgAABAgQIECAQBAQ5AUWJAAECBAgQIECAAAECBAgQINAoIMhpnIqeCBAgQIAAAQIECBAgQIAAAQJBQJATUJQIECBAgAABAgQIECBAgAABAo0CgpzGqeiJAAECBAgQIECAAAECBAgQIBAEBDkBRYkAAQIECBAgQIAAAQIECBAg0CggyGmcip4IECBAgAABAgQIECBAgAABAkFAkBNQlAgQIECAAAECBAgQIECAAAECjQKCnMap6IkAAQIECBAgQIAAAQIECBAgEAQEOQFFiQABAgQIECBAgAABAgQIECDQKCDIaZyKnggQIECAAAECBAgQIECAAAECQUCQE1CUCBAgQIAAAQIECBAgQIAAAQKNAoKcxqnoiQABAgQIECBAgAABAgQIECAQBAQ5AUWJAAECBAgQIECAAAECBAgQINAoIMhpnIqeCBAgQIAAAQIECBAgQIAAAQJBQJATUJQIECBAgAABAgQIECBAgAABAo0CgpzGqeiJAAECBAgQIECAAAECBAgQIBAEBDkBRYkAAQIECBAgQIAAAQIECBAg0CggyGmcip4IECBAgAABAgQIECBAgAABAkFAkBNQlAgQIECAAAECBAgQIECAAAECjQKCnMap6IkAAQIECBAgQIAAAQIECBAgEAQEOQFFiQABAgQIECBAgAABAgQIECDQKCDIaZyKnggQIECAAAECBAgQIECAAAECQUCQE1CUCBAgQIAAAQIECBAgQIAAAQKNAoKcxqnoiQABAgQIECBAgAABAgQIECAQBAQ5AUWJAAECBAgQIECAAAECBAgQINAoIMhpnIqeCBAgQIAAAQIECBAgQIAAAQJBQJATUJQIECBAgAABAgQIECBAgAABAo0CgpzGqeiJAAECBAgQIECAAAECBAgQIBAEBDkBRYkAAQIECBAgQIAAAQIECBAg0CggyGmcip4IECBAgAABAgQIECBAgAABAkFAkBNQlAgQIECAAAECBAgQIECAAAECjQKCnMap6IkAAQIECBAgQIAAAQIECBAgEAQEOQFFiQABAgQIECBAgAABAgQIECDQKCDIaZyKnggQIECAAAECBAgQIECAAAECQUCQE1CUCBAgQIAAAQIECBAgQIAAAQKNAoKcxqnoiQABAgQIECBAgAABAgQIECAQBAQ5AUWJAAECBAgQIECAAAECBAgQINAoIMhpnIqeCBAgQIAAAQIECBAgQIAAAQJBQJATUJQIECBAgAABAgQIECBAgAABAo0CgpzGqeiJAAECBAgQIECAAAECBAgQIBAEBDkBRYkAAQIECBAgQIAAAQIECBAg0CggyGmcip4IECBAgAABAgQIECBAgAABAkFAkBNQlAgQIECAAAECBAgQIECAAAECjQKCnMap6IkAAQIECBAgQIAAAQIECBAgEAQEOQFFiQABAgQIECBAgAABAgQIECDQKCDIaZyKnggQIECAAAECBAgQIECAAAECQUCQE1CUCBAgQIAAAQIECBAgQIAAAQKNAoKcxqnoiQABAgQIECBAgAABAgQIECAQBAQ5AUWJAAECBAgQIECAAAECBAgQINAoIMhpnIqeCBAgQIAAAQIECBAgQIAAAQJBQJATUJQIECBAgAABAgQIECBAgAABAo0CgpzGqeiJAAECBAgQIECAAAECBAgQIBAEBDkBRYkAAQIECBAgQIAAAQIECBAg0CggyGmcip4IECBAgAABAgQIECBAgAABAkFAkBNQlAgQIECAAAECBAgQIECAAAECjQKCnMap6IkAAQIECBAgQIAAAQIECBAgEAQEOQFFiQABAgQIECBAgAABAgQIECDQKCDIaZyKnggQIECAAAECBAgQIECAAAECQUCQE1CUCBAgQIAAAQIECBAgQIAAAQKNAoKcxqnoiQABAgQIECBAgAABAgQIECAQBAQ5AUWJAAECBAgQIECAAAECBAgQINAoIMhpnIqeCBAgQIAAAQIECBAgQIAAAQJBQJATUJQIECBAgAABAgQIECBAgAABAo0CgpzGqeiJAAECBAgQIECAAAECBAgQIBAEBDkBRYkAAQIECBAgQIAAAQIECBAg0CggyGmcip4IECBAgAABAgQIECBAgAABAkFAkBNQlAgQIECAAAECBAgQIECAAAECjQKCnMap6IkAAQIECBAgQIAAAQIECBAgEAQEOQFFiQABAgQIECBAgAABAgQIECDQKCDIaZyKnggQIECAAAECBAgQIECAAAECQUCQE1CUCBAgQIAAAQIECBAgQIAAAQKNAoKcxqnoiQABAgQIECBAgAABAgQIECAQBAQ5AUWJAAECBAgQIECAAAECBAgQINAoIMhpnIqeCBAgQIAAAQIECBAgQIAAAQJBQJATUJQIECBAgAABAgQIECBAgAABAo0CgpzGqeiJAAECBAgQIECAAAECBAgQIBAEBDkBRYkAAQIECBAgQIAAAQIECBAg0CggyGmcip4IECBAgAABAgQIECBAgAABAkFAkBNQlAgQIECAAAECBAgQIECAAAECjQKCnMap6IkAAQIECBAgQIAAAQIECBAgEAQEOQFFiQABAgQIECBAgAABAgQIECDQKCDIaZyKnggQIECAAAECBAgQIECAAAECQUCQE1CUCBAgQIAAAQIECBAgQIAAAQKNAoKcxqnoiQABAgQIECBAgAABAgQIECAQBAQ5AUWJAAECBAgQIECAAAECBAgQINAoIMhpnIqeCBAgQIAAAQIECBAgQIAAAQJBQJATUJQIECBAgAABAgQIECBAgAABAo0CgpzGqeiJAAECBAgQIECAAAECBAgQIBAEBDkBRYkAAQIECBAgQIAAAQIECBAg0CggyGmcip4IECBAgAABAgQIECBAgAABAkFAkBNQlAgQIECAAAECBAgQIECAAAECjQKCnMap6IkAAQIECBAgQIAAAQIECBAgEAQEOQFFiQABAgQIECBAgAABAgQIECDQKCDIaZyKnggQIECAAAECBAgQIECAAAECQUCQE1CUCBAgQIAAAQIECBAgQIAAAQKNAoKcxqnoiQABAgQIECBAgAABAgQIECAQBAQ5AUWJAAECBAgQIECAAAECBAgQINAoIMhpnIqeCBAgQIAAAQIECBAgQIAAAQJBQJATUJQIECBAgAABAgQIECBAgAABAo0CgpzGqeiJAAECBAgQIECAAAECBAgQIBAEBDkBRYkAAQIECBAgQIAAAQIECBAg0CggyGmcip4IECBAgAABAgQIECBAgAABAkFAkBNQlAgQIECAAAECBAgQIECAAAECjQKCnMap6IkAAQIECBAgQIAAAQIECBAgEAQEOQFFiQABAgQIECBAgAABAgQIECDQKCDIaZyKnggQIECAAAECBAgQIECAAAECQUCQE1CUCBAgQIAAAQIECBAgQIAAAQKNAoKcxqnoiQABAgQIECBAgAABAgQIECAQBAQ5AUWJAAECBAgQIECAAAECBAgQINAoIMhpnIqeCBAgQIAAAQIECBAgQIAAAQJBQJATUJQIECBAgAABAgQIECBAgAABAo0CgpzGqeiJAAECBAgQIECAAAECBAgQIBAEBDkBRYkAAQIECBAgQIAAAQIECBAg0CggyGmcip4IECBAgAABAgQIECBAgAABAkFAkBNQlAgQIECAAAECBAgQIECAAAECjQKCnMap6IkAAQIECBAgQIAAAQIECBAgEAQEOQFFiQABAgQIECBAgAABAgQIECDQKCDIaZyKnggQIECAAAECBAgQIECAAAECQUCQE1CUCBAgQIAAAQIECBAgQIAAAQKNAoKcxqnoiQABAgQIECBAgAABAgQIECAQBAQ5AUWJAAECBAgQIECAAAECBAgQINAoIMhpnIqeCBAgQIAAAQIECBAgQIAAAQJBQJATUJQIECBAgAABAgQIECBAgAABAo0CgpzGqeiJAAECBAgQIECAAAECBAgQIBAEBDkBRYkAAQIECBAgQIAAAQIECBAg0CggyGmcip4IECBAgAABAgQIECBAgAABAkFAkBNQlAgQIECAAAECBAgQIECAAAECjQKCnMap6IkAAQIECBAgQIAAAQIECBAgEAQEOQFFiQABAgQIECBAgAABAgQIECDQKCDIaZyKnggQIECAAAECBAgQIECAAAECQUCQE1CUCBAgQIAAAQIECBAgQIAAAQKNAoKcxqnoiQABAgQIECBAgAABAgQIECAQBAQ5AUWJAAECBAgQIECAAAECBAgQINAoIMhpnIqeCBAgQIAAAQIECBAgQIAAAQJBQJATUJQIECBAgAABAgQIECBAgAABAo0CgpzGqeiJAAECBAgQIECAAAECBAgQIBAEBDkBRYkAAQIECBAgQIAAAQIECBAg0CggyGmcip4IECBAgAABAgQIECBAgAABAkFAkBNQlAgQIECAAAECBAgQIECAAAECjQKCnMap6IkAAQIECBAgQIAAAQIECBAgEAQEOQFFiQABAgQIECBAgAABAgQIECDQKCDIaZyKnggQIECAAAECBAgQIECAAAECQUCQE1CUCBAgQIAAAQIECBAgQIAAAQKNAoKcxqnoiQABAgQIECBAgAABAgQIECAQBAQ5AUWJAAECBAgQIECAAAECBAgQINAoIMhpnIqeCBAgQIAAAQIECBAgQIAAAQJBQJATUJQIECBAgAABAgQIECBAgAABAo0CgpzGqeiJAAECBAgQIECAAAECBAgQIBAEBDkBRYkAAQIECBAgQIAAAQIECBAg0CggyGmcip4IECBAgAABAgQIECBAgAABAkFAkBNQlAgQIECAAAECBAgQIECAAAECjQKCnMap6IkAAQIECBAgQIAAAQIECBAgEAQEOQFFiQABAgQIECBAgAABAgQIECDQKCDIaZyKnggQIECAAAECBAgQIECAAAECQUCQE1CUCBAgQIAAAQIECBAgQIAAAQKNAoKcxqnoiQABAgQIECBAgAABAgQIECAQBAQ5AUWJAAECBAgQIECAAAECBAgQINAoIMhpnIqeCBAgQIAAAQIECBAgQIAAAQJBQJATUJQIECBAgAABAgQIECBAgAABAo0CgpzGqeiJAAECBAgQIECAAAECBAgQIBAEBDkBRYkAAQIECBAgQIAAAQIECBAg0CggyGmcip4IECBAgAABAgQIECBAgAABAkFAkBNQlAgQIECAAAECBAgQIECAAAECjQKCnMap6IkAAQIECBAgQIAAAQIECBAgEAQEOQFFiQABAgQIECBAgAABAgQIECDQKCDIaZyKnggQIECAAAECBAgQIECAAAECQUCQE1CUCBAgQIAAAQIECBAgQIAAAQKNAoKcxqnoiQABAgQIECBAgAABAgQIECAQBAQ5AUWJAAECBAgQIECAAAECBAgQINAoIMhpnIqeCBAgQIAAAQIECBAgQIAAAQJBQJATUJQIECBAgAABAgQIECBAgAABAo0CgpzGqeiJAAECBAgQIECAAAECBAgQIBAEBDkBRYkAAQIECBAgQIAAAQIECBAg0CggyGmcip4IECBAgAABAgQIECBAgAABAkFAkBNQlAgQIECAAAECBAgQIECAAAECjQKCnMap6IkAAQIECBAgQIAAAQIECBAgEAQEOQFFiQABAgQIECBAgAABAgQIECDQKCDIaZyKnggQIECAAAECBAgQIECAAAECQUCQE1CUCBAgQIAAAQIECBAgQIAAAQKNAoKcxqnoiQABAgQIECBAgAABAgQIECAQBAQ5AUWJAAECBAgQIECAAAECBAgQINAoIMhpnIqeCBAgQIAAAQIECBAgQIAAAQJBQJATUJQIECBAgAABAgQIECBAgAABAo0CgpzGqeiJAAECBAgQIECAAAECBAgQIBAEBDkBRYkAAQIECBAgQIAAAQIECBAg0CggyGmcip4IECBAgAABAgQIECBAgAABAkFAkBNQlAgQIECAAAECBAgQIECAAAECjQKCnMap6IkAAQIECBAgQIAAAQIECBAgEAQEOQFFiQABAgQIECBAgAABAgQIECDQKCDIaZyKnggQIECAAAECBAgQIECAAAECQUCQE1CUCBAgQIAAAQIECBAgQIAAAQKNAoKcxqnoiQABAgQIECBAgAABAgQIECAQBAQ5AUWJAAECBAgQIECAAAECBAgQINAoIMhpnIqeCBAgQIAAAQIECBAgQIAAAQJBQJATUJQIECBAgAABAgQIECBAgAABAo0CgpzGqeiJAAECBAgQIECAAAECBAgQIBAEBDkBRYkAAQIECBAgQIAAAQIECBAg0CggyGmcip4IECBAgAABAgQIECBAgAABAkFAkBNQlAgQIECAAAECBAgQIECAAAECjQKCnMap6IkAAQIECBAgQIAAAQIECBAgEAQEOQFFiQABAgQIECBAgAABAgQIECDQKCDIaZyKnggQIECAAAECBAgQIECAAAECQUCQE1CUCBAgQIAAAQIECBAgQIAAAQKNAoKcxqnoiQABAgQIECBAgAABAgQIECAQBAQ5AUWJAAECBAgQIECAAAECBAgQINAoIMhpnIqeCBAgQIAAAQIECBAgQIAAAQJBQJATUJQIECBAgAABAgQIECBAgAABAo0CgpzGqeiJAAECBAgQIECAAAECBAgQIBAEBDkBRYkAAQIECBAgQIAAAQIECBAg0CggyGmcip4IECBAgAABAgQIECBAgAABAkFAkBNQlAgQIECAAAECBAgQIECAAAECjQKCnMap6IkAAQIECBAgQIAAAQIECBAgEAQEOQFFiQABAgQIECBAgAABAgQIECDQKCDIaZyKnggQIECAAAECBAgQIECAAAECQUCQE1CUCBAgQIAAAQIECBAgQIAAAQKNAoKcxqnoiQABAgQIECBAgAABAgQIECAQBAQ5AUWJAAECBAgQIECAAAECBAgQINAoIMhpnIqeCBAgQIAAAQIECBAgQIAAAQJBQJATUJQIECBAgAABAgQIECBAgAABAo0CgpzGqeiJAAECBAgQIECAAAECBAgQIBAEBDkBRYkAAQIECBAgQIAAAQIECBAg0CggyGmcip4IECBAgAABAgQIECBAgAABAkFAkBNQlAgQIECAAAECBAgQIECAAAECjQKCnMap6IkAAQIECBAgQIAAAQIECBAgEAQEOQFFiQABAgQIECBAgAABAgQIECDQKCDIaZyKnggQIECAAAECBAgQIECAAAECQUCQE1CUCBAgQIAAAQIECBAgQIAAAQKNAoKcxqnoiQABAgQIECBAgAABAgQIECAQBAQ5AUWJAAECBAgQIECAAAECBAgQINAoIMhpnIqeCBAgQIAAAQIECBAgQIAAAQJBQJATUJQIECBAgAABAgQIECBAgAABAo0CgpzGqeiJAAECBAgQIECAAAECBAgQIBAEBDkBRYkAAQIECBAgQIAAAQIECBAg0CggyGmcip4IECBAgAABAgQIECBAgAABAkFAkBNQlAgQIECAAAECBAgQIECAAAECjQKCnMap6IkAAQIECBAgQIAAAQIECBAgEAQEOQFFiQABAgQIECBAgAABAgQIECDQKCDIaZyKnggQIECAAAECBAgQIECAAAECQUCQE1CUCBAgQIAAAQIECBAgQIAAAQKNAoKcxqnoiQABAgQIECBAgAABAgQIECAQBAQ5AUWJAAECBAgQIECAAAECBAgQINAoIMhpnIqeCBAgQIAAAQIECBAgQIAAAQJBQJATUJQIECBAgAABAgQIECBAgAABAo0CgpzGqeiJAAECBAgQIECAAAECBAgQIBAEBDkBRYkAAQIECBAgQIAAAQIECBAg0CggyGmcip4IECBAgAABAgQIECBAgAABAkFAkBNQlAgQIECAAAECBAgQIECAAAECjQKCnMap6IkAAQIECBAgQIAAAQIECBAgEAQEOQFFiQABAgQIECBAgAABAgQIECDQKCDIaZyKnggQIECAAAECBAgQIECAAAECQUCQE1CUCBAgQIAAAQIECBAgQIAAAQKNAoKcxqnoiQABAgQIECBAgAABAgQIECAQBAQ5AUWJAAECBAgQIECAAAECBAgQINAoIMhpnIqeCBAgQIAAAQIECBAgQIAAAQJBQJATUJQIECBAgAABAgQIECBAgAABAo0CgpzGqeiJAAECBAgQIECAAAECBAgQIBAEBDkBRYkAAQIECBAgQIAAAQIECBAg0CggyGmcip4IECBAgAABAgQIECBAgAABAkFAkBNQlAgQIECAAAECBAgQIECAAAECjQKCnMap6IkAAQIECBAgQIAAAQIECBAgEAQEOQFFiQABAgQIECBAgAABAgQIECDQKCDIaZyKnggQIECAAAECBAgQIECAAAECQUCQE1CUCBAgQIAAAQIECBAgQIAAAQKNAoKcxqnoiQABAgQIECBAgAABAgQIECAQBAQ5AUWJAAECBAgQIECAAAECBAgQINAoIMhpnIqeCBAgQIAAAQIECBAgQIAAAQJBQJATUJQIECBAgAABAgQIECBAgAABAo0CgpzGqeiJAAECBAgQIECAAAECBAgQIBAEBDkBRYkAAQIECBAgQIAAAQIECBAg0CggyGmcip4IECBAgAABAgQIECBAgAABAkFAkBNQlAgQIECAAAECBAgQIECAAAECjQKCnMap6IkAAQIECBAgQIAAAQIECBAgEAQEOQFFiQABAgQIECBAgAABAgQIECDQKCDIaZyKnggQIECAAAECBAgQIECAAAECQUCQE1CUCBAgQIAAAQIECBAgQIAAAQKNAoKcxqnoiQABAgQIECBAgAABAgQIECAQBAQ5AUWJAAECBAgQIECAAAECBAgQINAoIMhpnIqeCBAgQIAAAQIECBAgQIAAAQJBQJATUJQIECBAgAABAgQIECBAgAABAo0CgpzGqeiJAAECBAgQIECAAAECBAgQIBAEBDkBRYkAAQIECBAgQIAAAQIECBAg0CggyGmcip4IECBAgAABAgQIECBAgAABAkFAkBNQlAgQIECAAAECBAgQIECAAAECjQKCnMap6IkAAQIECBAgQIAAAQIECBAgEAQEOQFFiQABAgQIECBAgAABAgQIECDQKCDIaZyKnggQIECAAAECBAgQIECAAAECQUCQE1CUCBAgQIAAAQIECBAgQIAAAQKNAoKcxqnoiQABAgQIECBAgAABAgQIECAQBAQ5AUWJAAECBAgQIECAAAECBAgQINAoIMhpnIqeCBAgQIAAAQIECBAgQIAAAQJBQJATUJQIECBAgAABAgQIECBAgAABAo0CgpzGqeiJAAECBAgQIECAAAECBAgQIBAEBDkBRYkAAQIECBAgQIAAAQIECBAg0CggyGmcip4IECBAgAABAgQIECBAgAABAkFAkBNQlAgQIECAAAECBAgQIECAAAECjQKCnMap6IkAAQIECBAgQIAAAQIECBAgEAQEOQFFiQABAgQIECBAgAABAgQIECDQKCDIaZyKnggQIECAAAECBAgQIECAAAECQUCQE1CUCBAgQIAAAQIECBAgQIAAAQKNAoKcxqnoiQABAgQIECBAgAABAgQIECAQBAQ5AUWJAAECBAgQIECAAAECBAgQINAoIMhpnIqeCBAgQIAAAQIECBAgQIAAAQJBQJATUJQIECBAgAABAgQIECBAgAABAo0CgpzGqeiJAAECBAgQIECAAAECBAgQIBAEBDkBRYkAAQIECBAgQIAAAQIECBAg0CggyGmcip4IECBAgAABAgQIECBAgAABAkFAkBNQlAgQIECAAAECBAgQIECAAAECjQKCnMap6IkAAQIECBAgQIAAAQIECBAgEAQEOQFFiQABAgQIECBAgAABAgQIECDQKCDIaZyKnggQIECAAAECBAgQIECAAAECQUCQE1CUCBAgQIAAAQIECBAgQIAAAQKNAoKcxqnoiQABAgQIECBAgAABAgQIECAQBAQ5AUWJAAECBAgQIECAAAECBAgQINAoIMhpnIqeCBAgQIAAAQIECBAgQIAAAQJBQJATUJQIECBAgAABAgQIECBAgAABAo0CgpzGqeiJAAECBAgQIECAAAECBAgQIBAEBDkBRYkAAQIECBAgQIAAAQIECBAg0CggyGmcip4IECBAgAABAgQIECBAgAABAkFAkBNQlAgQIECAAAECBAgQIECAAAECjQKCnMap6IkAAQIECBAgQIAAAQIECBAgEAQEOQFFiQABAgQIECBAgAABAgQIECDQKCDIaZyKnggQIECAAAECBAgQIECAAAECQUCQE1CUCBAgQIAAAQIECBAgQIAAAQKNAoKcxqnoiQABAgQIECBAgAABAgQIECAQBAQ5AUWJAAECBAgQIECAAAECBAgQINAoIMhpnIqeCBAgQIAAAQIECBAgQIAAAQJBQJATUJQIECBAgAABAgQIECBAgAABAo0CgpzGqeiJAAECBAgQIECAAAECBAgQIBAEBDkBRYkAAQIECBAgQIAAAQIECBAg0CggyGmcip4IECBAgAABAgQIECBAgAABAkFAkBNQlAgQIECAAAECBAgQIECAAAECjQKCnMap6IkAAQIECBAgQIAAAQIECBAgEAQEOQFFiQABAgQIECBAgAABAgQIECDQKCDIaZyKnggQIECAAAECBAgQIECAAAECQUCQE1CUCBAgQIAAAQIECBAgQIAAAQKNAoKcxqnoiQABAgQIECBAgAABAgQIECAQBAQ5AUWJAAECBAgQIECAAAECBAgQINAoIMhpnIqeCBAgQIAAAQIECBAgQIAAAQJBQJATUJQIECBAgAABAgQIECBAgAABAo0CgpzGqeiJAAECBAgQIECAAAECBAgQIBAEBDkBRYkAAQIECBAgQIAAAQIECBAg0CggyGmcip4IECBAgAABAgQIECBAgAABAkFAkBNQlAgQIECAAAECBAgQIECAAAECjQKCnMap6IkAAQIECBAgQIAAAQIECBAgEAQEOQFFiQABAgQIECBAgAABAgQIECDQKCDIaZyKnggQIECAAAECBAgQIECAAAECQUCQE1CUCBAgQIAAAQIECBAgQIAAAQKNAoKcxqnoiQABAgQIECBAgAABAgQIECAQBAQ5AUWJAAECBAgQIECAAAECBAgQINAoIMhpnIqeCBAgQIAAAQIECBAgQIAAAQJBQJATUJQIECBAgAABAgQIECBAgAABAo0CgpzGqeiJAAECBAgQIECAAAECBAgQIBAEBDkBRYkAAQIECBAgQIAAAQIECBAg0CggyGmcip4IECBAgAABAgQIECBAgAABAkFAkBNQlAgQIECAAAECBAgQIECAAAECjQKCnMap6IkAAQIECBAgQIAAAQIECBAgEAQEOQFFiQABAgQIECBAgAABAgQIECDQKCDIaZyKnggQIECAAAECBAgQIECAAAECQUCQE1CUCBAgQIAAAQIECBAgQIAAAQKNAoKcxqnoiQABAgQIECBAgAABAgQIECAQBAQ5AUWJAAECBAgQIECAAAECBAgQINAoIMhpnIqeCBAgQIAAAQIECBAgQIAAAQJBQJATUJQIECBAgAABAgQIECBAgAABAo0CgpzGqeiJAAECBAgQIECAAAECBAgQIBAEBDkBRYkAAQIECBAgQIAAAQIECBAg0CggyGmcip4IECBAgAABAgQIECBAgAABAkFAkBNQlAgQIECAAAECBAgQIECAAAECjQKCnMap6IkAAQIECBAgQIAAAQIECBAgEAQEOQFFiQABAgQIECBAgAABAgQIECDQKCDIaZyKnggQIECAAAECBAgQIECAAAECQUCQE1CUCBAgQIAAAQIECBAgQIAAAQKNAoKcxqnoiQABAgQIECBAgAABAgQIECAQBAQ5AUWJAAECBAgQIECAAAECBAgQINAoIMhpnIqeCBAgQIAAAQIECBAgQIAAAQJBQJATUJQIECBAgAABAgQIECBAgAABAo0CgpzGqeiJAAECBAgQIECAAAECBAgQIBAEBDkBRYkAAQIECBAgQIAAAQIECBAg0CggyGmcip4IECBAgAABAgQIECBAgAABAkFAkBNQlAgQIECAAAECBAgQIECAAAECjQKCnMap6IkAAQIECBAgQIAAAQIECBAgEAQEOQFFiQABAgQIECBAgAABAgQIECDQKCDIaZyKnggQIECAAAECBAgQIECAAAECQUCQE1CUCBAgQIAAAQIECBAgQIAAAQKNAoKcxqnoiQABAgQIECBAgAABAgQIECAQBAQ5AUWJAAECBAgQIECAAAECBAgQINAoIMhpnIqeCBAgQIAAAQIECBAgQIAAAQJBQJATUJQIECBAgAABAgQIECBAgAABAo0CgpzGqeiJAAECBAgQIECAAAECBAgQIBAEBDkBRYkAAQIECBAgQIAAAQIECBAg0CggyGmcip4IECBAgAABAgQIECBAgAABAkFAkBNQlAgQIECAAAECBAgQIECAAAECjQKCnMap6IkAAQIECBAgQIAAAQIECBAgEAQEOQFFiQABAgQIECBAgAABAgQIECDQKCDIaZyKnggQIECAAAECBAgQIECAAAECQUCQE1CUCBAgQIAAAQIECBAgQIAAAQKNAoKcxqnoiQABAgQIECBAgAABAgQIECAQBAQ5AUWJAAECBAgQIECAAAECBAgQINAoIMhpnIqeCBAgQIAAAQIECBAgQIAAAQJBQJATUJQIECBAgAABAgQIECBAgAABAo0CgpzGqeiJAAECBAgQIECAAAECBAgQIBAEBDkBRYkAAQIECBAgQIAAAQIECBAg0CggyGmcip4IECBAgAABAgQIECBAgAABAkFAkBNQlAgQIECAAAECBAgQIECAAAECjQKCnMap6IkAAQIECBAgQIAAAQIECBAgEAQEOQFFiQABAgQIECBAgAABAgQIECDQKCDIaZyKnggQIECAAAECBAgQIECAAAECQUCQE1CUCBAgQIAAAQIECBAgQIAAAQKNAoKcxqnoiQABAgQIECBAgAABAgQIECAQBAQ5AUWJAAECBAgQIECAAAECBAgQINAoIMhpnIqeCBAgQIAAAQIECBAgQIAAAQJBQJATUJQIECBAgAABAgQIECBAgAABAo0CgpzGqeiJAAECBAgQIECAAAECBAgQIBAEBDkBRYkAAQIECBAgQIAAAQIECBAg0CggyGmcip4IECBAgAABAgQIECBAgAABAkFAkBNQlAgQIECAAAECBAgQIECAAAECjQKCnMap6IkAAQIECBAgQIAAAQIECBAgEAQEOQFFiQABAgQIECBAgAABAgQIECDQKCDIaZyKnggQIECAAAECBAgQIECAAAECQUCQE1CUCBAgQIAAAQIECBAgQIAAAQKNAoKcxqnoiQABAgQIECBAgAABAgQIECAQBAQ5AUWJAAECBAgQIECAAAECBAgQINAoIMhpnIqeCBAgQIAAAQIECBAgQIAAAQJBQJATUJQIECBAgAABAgQIECBAgAABAo0CgpzGqeiJAAECBAgQIECAAAECBAgQIBAEBDkBRYkAAQIECBAgQIAAAQIECBAg0CggyGmcip4IECBAgAABAgQIECBAgAABAkFAkBNQlAgQIECAAAECBAgQIECAAAECjQKCnMap6IkAAQIECBAgQIAAAQIECBAgEAQEOQFFiQABAgQIECBAgAABAgQIECDQKCDIaZyKnggQIECAAAECBAgQIECAAAECQUCQE1CUCBAgQIAAAQIECBAgQIAAAQKNAoKcxqnoiQABAgQIECBAgAABAgQIECAQBAQ5AUWJAAECBAgQIECAAAECBAgQINAoIMhpnIqeCBAgQIAAAQIECBAgQIAAAQJBQJATUJQIECBAgAABAgQIECBAgAABAo0CgpzGqeiJAAECBAgQIECAAAECBAgQIBAEBDkBRYkAAQIECBAgQIAAAQIECBAg0CggyGmcip4IECBAgAABAgQIECBAgAABAkFAkBNQlAgQIECAAAECBAgQIECAAAECjQKCnMap6IkAAQIECBAgQIAAAQIECBAgEAQEOQFFiQABAgQIECBAgAABAgQIECDQKCDIaZyKnggQIECAAAECBAgQIECAAAECQUCQE1CUCBAgQIAAAQIECBAgQIAAAQKNAoKcxqnoiQABAgQIECBAgAABAgQIECAQBAQ5AUWJAAECBAgQIECAAAECBAgQINAoIMhpnIqeCBAgQIAAAQIECBAgQIAAAQJBQJATUJQIECBAgAABAgQIECBAgAABAo0CgpzGqeiJAAECBAgQIECAAAECBAgQIBAEBDkBRYkAAQIECBAgQIAAAQIECBAg0CggyGmcip4IECBAgAABAgQIECBAgAABAkFAkBNQlAgQIECAAAECBAgQIECAAAECjQKCnMap6IkAAQIECBAgQIAAAQIECBAgEAQEOQFFiQABAgQIECBAgAABAgQIECDQKCDIaZyKnggQIECAAAECBAgQIECAAAECQUCQE1CUCBAgQIAAAQIECBAgQIAAAQKNAoKcxqnoiQABAgQIECBAgAABAgQIECAQBAQ5AUWJAAECBAgQIECAAAECBAgQINAoIMhpnIqeCBAgQIAAAQIECBAgQIAAAQJBQJATUJQIECBAgAABAgQIECBAgAABAo0CgpzGqeiJAAECBAgQIECAAAECBAgQIBAEBDkBRYkAAQIECBAgQIAAAQIECBAg0CggyGmcip4IECBAl+93TAAAD65JREFUgAABAgQIECBAgAABAkFAkBNQlAgQIECAAAECBAgQIECAAAECjQKCnMap6IkAAQIECBAgQIAAAQIECBAgEAQEOQFFiQABAgQIECBAgAABAgQIECDQKCDIaZyKnggQIECAAAECBAgQIECAAAECQUCQE1CUCBAgQIAAAQIECBAgQIAAAQKNAoKcxqnoiQABAgQIECBAgAABAgQIECAQBAQ5AUWJAAECBAgQIECAAAECBAgQINAoIMhpnIqeCBAgQIAAAQIECBAgQIAAAQJBQJATUJQIECBAgAABAgQIECBAgAABAo0CgpzGqeiJAAECBAgQIECAAAECBAgQIBAEBDkBRYkAAQIECBAgQIAAAQIECBAg0CggyGmcip4IECBAgAABAgQIECBAgAABAkFAkBNQlAgQIECAAAECBAgQIECAAAECjQKCnMap6IkAAQIECBAgQIAAAQIECBAgEAQEOQFFiQABAgQIECBAgAABAgQIECDQKCDIaZyKnggQIECAAAECBAgQIECAAAECQUCQE1CUCBAgQIAAAQIECBAgQIAAAQKNAoKcxqnoiQABAgQIECBAgAABAgQIECAQBAQ5AUWJAAECBAgQIECAAAECBAgQINAoIMhpnIqeCBAgQIAAAQIECBAgQIAAAQJBQJATUJQIECBAgAABAgQIECBAgAABAo0CgpzGqeiJAAECBAgQIECAAAECBAgQIBAEBDkBRYkAAQIECBAgQIAAAQIECBAg0CggyGmcip4IECBAgAABAgQIECBAgAABAkFAkBNQlAgQIECAAAECBAgQIECAAAECjQKCnMap6IkAAQIECBAgQIAAAQIECBAgEAQEOQFFiQABAgQIECBAgAABAgQIECDQKCDIaZyKnggQIECAAAECBAgQIECAAAECQUCQE1CUCBAgQIAAAQIECBAgQIAAAQKNAoKcxqnoiQABAgQIECBAgAABAgQIECAQBAQ5AUWJAAECBAgQIECAAAECBAgQINAoIMhpnIqeCBAgQIAAAQIECBAgQIAAAQJBQJATUJQIECBAgAABAgQIECBAgAABAo0CgpzGqeiJAAECBAgQIECAAAECBAgQIBAEBDkBRYkAAQIECBAgQIAAAQIECBAg0CggyGmcip4IECBAgAABAgQIECBAgAABAkFAkBNQlAgQIECAAAECBAgQIECAAAECjQKCnMap6IkAAQIECBAgQIAAAQIECBAgEAQEOQFFiQABAgQIECBAgAABAgQIECDQKCDIaZyKnggQIECAAAECBAgQIECAAAECQUCQE1CUCBAgQIAAAQIECBAgQIAAAQKNAoKcxqnoiQABAgQIECBAgAABAgQIECAQBAQ5AUWJAAECBAgQIECAAAECBAgQINAoIMhpnIqeCBAgQIAAAQIECBAgQIAAAQJBQJATUJQIECBAgAABAgQIECBAgAABAo0CgpzGqeiJAAECBAgQIECAAAECBAgQIBAEBDkBRYkAAQIECBAgQIAAAQIECBAg0CggyGmcip4IECBAgAABAgQIECBAgAABAkFAkBNQlAgQIECAAAECBAgQIECAAAECjQKCnMap6IkAAQIECBAgQIAAAQIECBAgEAQEOQFFiQABAgQIECBAgAABAgQIECDQKCDIaZyKnggQIECAAAECBAgQIECAAAECQUCQE1CUCBAgQIAAAQIECBAgQIAAAQKNAoKcxqnoiQABAgQIECBAgAABAgQIECAQBAQ5AUWJAAECBAgQIECAAAECBAgQINAoIMhpnIqeCBAgQIAAAQIECBAgQIAAAQJBQJATUJQIECBAgAABAgQIECBAgAABAo0CgpzGqeiJAAECBAgQIECAAAECBAgQIBAEBDkBRYkAAQIECBAgQIAAAQIECBAg0CggyGmcip4IECBAgAABAgQIECBAgAABAkFAkBNQlAgQIECAAAECBAgQIECAAAECjQKCnMap6IkAAQIECBAgQIAAAQIECBAgEAQEOQFFiQABAgQIECBAgAABAgQIECDQKCDIaZyKnggQIECAAAECBAgQIECAAAECQUCQE1CUCBAgQIAAAQIECBAgQIAAAQKNAoKcxqnoiQABAgQIECBAgAABAgQIECAQBAQ5AUWJAAECBAgQIECAAAECBAgQINAoIMhpnIqeCBAgQIAAAQIECBAgQIAAAQJBQJATUJQIECBAgAABAgQIECBAgAABAo0CgpzGqeiJAAECBAgQIECAAAECBAgQIBAEBDkBRYkAAQIECBAgQIAAAQIECBAg0CggyGmcip4IECBAgAABAgQIECBAgAABAkFAkBNQlAgQIECAAAECBAgQIECAAAECjQKCnMap6IkAAQIECBAgQIAAAQIECBAgEAQEOQFFiQABAgQIECBAgAABAgQIECDQKCDIaZyKnggQIECAAAECBAgQIECAAAECQUCQE1CUCBAgQIAAAQIECBAgQIAAAQKNAoKcxqnoiQABAgQIECBAgAABAgQIECAQBAQ5AUWJAAECBAgQIECAAAECBAgQINAoIMhpnIqeCBAgQIAAAQIECBAgQIAAAQJBQJATUJQIECBAgAABAgQIECBAgAABAo0CgpzGqeiJAAECBAgQIECAAAECBAgQIBAEBDkBRYkAAQIECBAgQIAAAQIECBAg0CggyGmcip4IECBAgAABAgQIECBAgAABAkFAkBNQlAgQIECAAAECBAgQIECAAAECjQKCnMap6IkAAQIECBAgQIAAAQIECBAgEAQEOQFFiQABAgQIECBAgAABAgQIECDQKCDIaZyKnggQIECAAAECBAgQIECAAAECQUCQE1CUCBAgQIAAAQIECBAgQIAAAQKNAoKcxqnoiQABAgQIECBAgAABAgQIECAQBAQ5AUWJAAECBAgQIECAAAECBAgQINAoIMhpnIqeCBAgQIAAAQIECBAgQIAAAQJBQJATUJQIECBAgAABAgQIECBAgAABAo0CgpzGqeiJAAECBAgQIECAAAECBAgQIBAEBDkBRYkAAQIECBAgQIAAAQIECBAg0CggyGmcip4IECBAgAABAgQIECBAgAABAkFAkBNQlAgQIECAAAECBAgQIECAAAECjQKCnMap6IkAAQIECBAgQIAAAQIECBAgEAQEOQFFiQABAgQIECBAgAABAgQIECDQKCDIaZyKnggQIECAAAECBAgQIECAAAECQUCQE1CUCBAgQIAAAQIECBAgQIAAAQKNAoKcxqnoiQABAgQIECBAgAABAgQIECAQBAQ5AUWJAAECBAgQIECAAAECBAgQINAoIMhpnIqeCBAgQIAAAQIECBAgQIAAAQJBQJATUJQIECBAgAABAgQIECBAgAABAo0CgpzGqeiJAAECBAgQIECAAAECBAgQIBAEBDkBRYkAAQIECBAgQIAAAQIECBAg0CggyGmcip4IECBAgAABAgQIECBAgAABAkFAkBNQlAgQIECAAAECBAgQIECAAAECjQKCnMap6IkAAQIECBAgQIAAAQIECBAgEAQEOQFFiQABAgQIECBAgAABAgQIECDQKCDIaZyKnggQIECAAAECBAgQIECAAAECQUCQE1CUCBAgQIAAAQIECBAgQIAAAQKNAoKcxqnoiQABAgQIECBAgAABAgQIECAQBAQ5AUWJAAECBAgQIECAAAECBAgQINAoIMhpnIqeCBAgQIAAAQIECBAgQIAAAQJBQJATUJQIECBAgAABAgQIECBAgAABAo0CgpzGqeiJAAECBAgQIECAAAECBAgQIBAEBDkBRYkAAQIECBAgQIAAAQIECBAg0CggyGmcip4IECBAgAABAgQIECBAgAABAkFAkBNQlAgQIECAAAECBAgQIECAAAECjQKCnMap6IkAAQIECBAgQIAAAQIECBAgEAQEOQFFiQABAgQIECBAgAABAgQIECDQKCDIaZyKnggQIECAAAECBAgQIECAAAECQUCQE1CUCBAgQIAAAQIECBAgQIAAAQKNAoKcxqnoiQABAgQIECBAgAABAgQIECAQBAQ5AUWJAAECBAgQIECAAAECBAgQINAoIMhpnIqeCBAgQIAAAQIECBAgQIAAAQJBQJATUJQIECBAgAABAgQIECBAgAABAo0CgpzGqeiJAAECBAgQIECAAAECBAgQIBAEBDkBRYkAAQIECBAgQIAAAQIECBAg0CggyGmcip4IECBAgAABAgQIECBAgAABAkFAkBNQlAgQIECAAAECBAgQIECAAAECjQKCnMap6IkAAQIECBAgQIAAAQIECBAgEAQEOQFFiQABAgQIECBAgAABAgQIECDQKCDIaZyKnggQIECAAAECBAgQIECAAAECQUCQE1CUCBAgQIAAAQIECBAgQIAAAQKNAoKcxqnoiQABAgQIECBAgAABAgQIECAQBAQ5AUWJAAECBAgQIECAAAECBAgQINAoIMhpnIqeCBAgQIAAAQIECBAgQIAAAQJBQJATUJQIECBAgAABAgQIECBAgAABAo0CgpzGqeiJAAECBAgQIECAAAECBAgQIBAEBDkBRYkAAQIECBAgQIAAAQIECBAg0CggyGmcip4IECBAgAABAgQIECBAgAABAkFAkBNQlAgQIECAAAECBAgQIECAAAECjQKCnMap6IkAAQIECBAgQIAAAQIECBAgEAQEOQFFiQABAgQIECBAgAABAgQIECDQKCDIaZyKnggQIECAAAECBAgQIECAAAECQUCQE1CUCBAgQIAAAQIECBAgQIAAAQKNAoKcxqnoiQABAgQIECBAgAABAgQIECAQBAQ5AUWJAAECBAgQIECAAAECBAgQINAoIMhpnIqeCBAgQIAAAQIECBAgQIAAAQJBQJATUJQIECBAgAABAgQIECBAgAABAo0CgpzGqeiJAAECBAgQIECAAAECBAgQIBAEBDkBRYkAAQIECBAgQIAAAQIECBAg0CggyGmcip4IECBAgAABAgQIECBAgAABAkFAkBNQlAgQIECAAAECBAgQIECAAAECjQKCnMap6IkAAQIECBAgQIAAAQIECBAgEAQEOQFFiQABAgQIECBAgAABAgQIECDQKCDIaZyKnggQIECAAAECBAgQIECAAAECQUCQE1CUCBAgQIAAAQIECBAgQIAAAQKNAoKcxqnoiQABAgQIECBAgAABAgQIECAQBAQ5AUWJAAECBAgQIECAAAECBAgQINAoIMhpnIqeCBAgQIAAAQIECBAgQIAAAQJBQJATUJQIECBAgAABAgQIECBAgAABAo0Cj56m3trYmJ4IECBAgAABAgQIECBAgAABAgTuLeAdOff28BMBAgQIECBAgAABAgQIECBAgAABAgQIECBAgAABAgQIECBAgACBd03g/wJobtRn3ppvGgAAAABJRU5ErkJggg==;" parent="1" vertex="1">
          <mxGeometry x="364" y="-122" width="1982" height="1224" as="geometry" />
        </mxCell>
        <mxCell id="67Oz3dFfI7quKX-kB1Q3-11" value="" style="shape=image;verticalLabelPosition=bottom;labelBackgroundColor=#ffffff;verticalAlign=top;aspect=fixed;imageAspect=0;image=data:image/png,iVBORw0KGgoAAAANSUhEUgAAAD4AAAA+CAYAAABzwahEAAAAAXNSR0IArs4c6QAAAJBlWElmTU0AKgAAAAgABgEGAAMAAAABAAIAAAESAAMAAAABAAEAAAEaAAUAAAABAAAAVgEbAAUAAAABAAAAXgEoAAMAAAABAAIAAIdpAAQAAAABAAAAZgAAAAAAAACQAAAAAQAAAJAAAAABAAOgAQADAAAAAQABAACgAgAEAAAAAQAAAD6gAwAEAAAAAQAAAD4AAAAAf3t2SgAAAAlwSFlzAAAWJQAAFiUBSVIk8AAAAm9pVFh0WE1MOmNvbS5hZG9iZS54bXAAAAAAADx4OnhtcG1ldGEgeG1sbnM6eD0iYWRvYmU6bnM6bWV0YS8iIHg6eG1wdGs9IlhNUCBDb3JlIDYuMC4wIj4KICAgPHJkZjpSREYgeG1sbnM6cmRmPSJodHRwOi8vd3d3LnczLm9yZy8xOTk5LzAyLzIyLXJkZi1zeW50YXgtbnMjIj4KICAgICAgPHJkZjpEZXNjcmlwdGlvbiByZGY6YWJvdXQ9IiIKICAgICAgICAgICAgeG1sbnM6dGlmZj0iaHR0cDovL25zLmFkb2JlLmNvbS90aWZmLzEuMC8iPgogICAgICAgICA8dGlmZjpSZXNvbHV0aW9uVW5pdD4yPC90aWZmOlJlc29sdXRpb25Vbml0PgogICAgICAgICA8dGlmZjpYUmVzb2x1dGlvbj4xNDQ8L3RpZmY6WFJlc29sdXRpb24+CiAgICAgICAgIDx0aWZmOllSZXNvbHV0aW9uPjE0NDwvdGlmZjpZUmVzb2x1dGlvbj4KICAgICAgICAgPHRpZmY6T3JpZW50YXRpb24+MTwvdGlmZjpPcmllbnRhdGlvbj4KICAgICAgICAgPHRpZmY6Q29tcHJlc3Npb24+MTwvdGlmZjpDb21wcmVzc2lvbj4KICAgICAgICAgPHRpZmY6UGhvdG9tZXRyaWNJbnRlcnByZXRhdGlvbj4yPC90aWZmOlBob3RvbWV0cmljSW50ZXJwcmV0YXRpb24+CiAgICAgIDwvcmRmOkRlc2NyaXB0aW9uPgogICA8L3JkZjpSREY+CjwveDp4bXBtZXRhPgpgtfwkAAAIaElEQVRoBe1ZCVRV1xXdTDI6ISg4gUoIjqAMilVMHCComDrHiDXERKOmGktaq02MXdaVlaSJrZo2jbEmrNRom2gaTYUoNRAnUBFkEBFR1CjOokZAUHr2/Xx8X4P8DwjN+v+w/nv33XffPXffM94DYKZkRdw+/mGV5oQ/PyPZytqcAGuxWoBrd8Mc2haJm4OUtRgtEtfuhjm0LRI3BylrMVokrt0Nc2hbJG4OUtZitEhcuxvm0LZI3BykrMVoq30wpu3gYI+oyOEY/uQg9Or+OFxbt8Tt8nKcOn0WCTuSsOaTz1BWdltNtXTxAjg5OmDTV/HYt/+QwfQTnh6J/sEBuHDxMt75898M3rVo7oKFC2bDzs4Wf/rL33H23HnY2dpi2pTxGDNyOLp18YKVtRXOSf+BQ5n4ZP3nyM07bjBHbQ8mA3972WJEjnhCzVtZWYmbN3+As7MT/Hy7qd+g0GBMfWE+7ty5g57dfRHQuwfc2rg+APxXv3wB7m5t1Dz/3Pw1Ck+dqV5r+NAwTBo3GuXlFVj29irY2tpg3Qfvon9QgBpzQ3iWlJSiQ3tPeHt1QkCfHogcN736e2MaJgM/WXga738Yhx3f7kLesQIlbSdHR8RET8Qrc2cgsG9vhA8djG3bv8WOnbsU8KC+fZTEyisq1Jq8O3esBs2OkH59DIAPHBCoxlFLbty4iWcmRCnQt0pKMGveoupNtLa2RpB86+vTRY035WKyc3tv9UeifmuRlXNUgSYzLuj9NXHILzipePcP7qvuBE5yFHWnVPQULIslpaVnqXtQP391119CQ/qp5vb/Jqt7Tz9fdc/KyasGzY67d+8i9UA6Pt2wWb035WIy8IdNXnDilHrt2qqluh8/UQhqCGlAFRi2gwN1QLlZNBf9M9/5+nRVpkFQ26s27sz35/gK/r38MGTQANWu78VkVSdDOp+IYWF4TBZJB3St+DqOFxSiufSTrG3u7ScX/+JzUzCwfyBWffCxek8J/3DrFnbvO4CjYi70Dx5t3VF04SJ+VqXmhzKycenyFTV+46atiJk2GW1cW+Gj1W/hWP4JZUrfiEbw+7qQycCHhg3EH5f/rhpkbUzpCwjcv1cPODo4oGWL5ujUwRPf7dmvHGDqwXQFnLa6NT4RoSE6+05I1Kk55+fGTol5Ga8vnI9BoUGy4V3Ub97sGGQfycOS5e/icFZubUsxeH9PNAbdP/7Qob0HVr6zVIHek3IQE6fNRvCQKIQOG4vx0bNwKENns9qvKbnLV64qzSA4vVoTMIk2SmI/vXdIkM4M9PatXsrlhJjM83NeRdhTE7H0zRXYl5qmzISRI+7DFWjrrosQ+vG13U0CPjL8Sdjb2yun8vKrS5CemaOkQZXkjl8VydxPtOHEpD2qm04ruMqRVQM/mKGzc/H81ApnJyfk5B7DmbNF90+lnovOX8Q/Nn6JaTMXYNL0uZIzlKlvxowc8aPja+o0Cbhr61ZqnlsSQxlmtMSQxoWT7Js1075CYpWTop0HB/ZBaWkZMqtU8+q1YuQfPwmfbt4YFTFUffeNRs0NJrrvIf1wNk6d0Tk+mpApZBJwqhvJRRKWp0fd2+Gu3p2xRpwOnQ+pd08/NLOzU21edqccUCGv++M+8OnqDS5YH9P5PkXU3srKCpPGj+YjEqrCmHqQy6znp2LcmKfQuipasJ8xfGxUhGRxndWwVNEcU8gk57blPzvUIjp3bC8O7jXEzpsJK/nzaOeOc0UXsOytleKA5skGtBbvHISd3+1Va2EKu0ucWbhEAlJqmuEiuejoyWOVpjD8UQO0NFiyQeYGNBtqyPXrN9BGssHmLs5q2L+/3i7OMlX7Sa1tG45w9fBaWutIGVAhmVe8ZGQExnSzZQsXtRCGm9jFf8B+AVBRcQcJiUnYsi3RYEqGKhdnZwlFBfh4/Rco1viDItk0T492OClpa9yGTQ8A37s/TSLAXcn7HdGurZuK85w8M+sIVv51nUqoDJjV8nDlfOHvf5L/JqYZ8WBUV/rJ/pu4PqD1m2WSc9N/9P905zGZHp3OzhQyybmZMvGjHMsUNyZ6knKgtHkSj7DJe1Lw0vzFRrE2GvjMmGexeUs8Ll7S5c9Gzf4IBtGxEjSTprjPvlDOlMfcyRIKBw8MMZqj0cBZKdm2KQ4bPv8Ka+M2Km9uNJcGHMj0d+GSNx+YUZ/qPvCihg6jDePLrQmYMefX+PnoCCTH/wvLXouVZMSrhmkbp5v27d+rO2xsbCQctsVeyd+NJaMlzgkzJG6OmvAc3lj0ilRFxqgf8/XNUlOLl3rblavXjOVb53HM8IKkyhMVOQKjI4ehUs7tvxENYIxnbc9YqnMcHyHlpUWxc9URk8xYOODG7Ezeq05cmdm59Yq1WgDubq4ICQyQI2kwnhg8oDqBSUzajTeWv4c5L/4CbmL7c2Nf135WY5txvM7AOSsrn9HPjMNLM6ZKtVWXp+u5ld2+jSNH85EnRQOmoIWnv5eK6iX1K5aUU1+J1Y93dnJEK8nF6aU7yvGXRUTW0ljJ5XFYS9m5eVixei2Sdu1Ta1i/bpXU4n4rGlesHVZju97A9TPb2zeTQ0s4pj87XpWO9P213bk5JGZiVOGHETUqeXcKPpUjKQFriQWOktJSbddD2w0GXMulh99jqvwcMXwIuojU6kPM0NIP54DHVNbsme83BD0S4NqFsZ5OR+QvtXXGWq9OHeDp2U4KB44GEuapi2GKRQYeffnPAVZx06Siw7N7Q9MjB/6wBVM9aSK09VKpohB8YxGBmxTOGnJhtElT7LIheXMuoxOYhmbc1PNZgDe1BBqbv0Xijb3jTc3PIvGmlkBj87dIvLF3vKn5WSTe1BJobP4WiTf2jjc1P7OVeFNvfJPx/x9zDRJxWln+MQAAAABJRU5ErkJggg==;" parent="1" vertex="1">
          <mxGeometry x="372" y="-104" width="96" height="96" as="geometry" />
        </mxCell>
        <mxCell id="EAS1CFW65RT30s3s56_A-18" style="edgeStyle=orthogonalEdgeStyle;rounded=0;orthogonalLoop=1;jettySize=auto;html=1;" parent="1" source="67Oz3dFfI7quKX-kB1Q3-25" edge="1">
          <mxGeometry relative="1" as="geometry">
            <mxPoint x="1254" y="205" as="targetPoint" />
          </mxGeometry>
        </mxCell>
        <mxCell id="67Oz3dFfI7quKX-kB1Q3-25" value="" style="shape=image;verticalLabelPosition=bottom;labelBackgroundColor=#ffffff;verticalAlign=top;aspect=fixed;imageAspect=0;image=data:image/png,iVBORw0KGgoAAAANSUhEUgAAAEoAAABICAYAAABRGGN6AAAAAXNSR0IArs4c6QAAAJBlWElmTU0AKgAAAAgABgEGAAMAAAABAAIAAAESAAMAAAABAAEAAAEaAAUAAAABAAAAVgEbAAUAAAABAAAAXgEoAAMAAAABAAIAAIdpAAQAAAABAAAAZgAAAAAAAACQAAAAAQAAAJAAAAABAAOgAQADAAAAAQABAACgAgAEAAAAAQAAAEqgAwAEAAAAAQAAAEgAAAAAHlWKmQAAAAlwSFlzAAAWJQAAFiUBSVIk8AAAAm9pVFh0WE1MOmNvbS5hZG9iZS54bXAAAAAAADx4OnhtcG1ldGEgeG1sbnM6eD0iYWRvYmU6bnM6bWV0YS8iIHg6eG1wdGs9IlhNUCBDb3JlIDYuMC4wIj4KICAgPHJkZjpSREYgeG1sbnM6cmRmPSJodHRwOi8vd3d3LnczLm9yZy8xOTk5LzAyLzIyLXJkZi1zeW50YXgtbnMjIj4KICAgICAgPHJkZjpEZXNjcmlwdGlvbiByZGY6YWJvdXQ9IiIKICAgICAgICAgICAgeG1sbnM6dGlmZj0iaHR0cDovL25zLmFkb2JlLmNvbS90aWZmLzEuMC8iPgogICAgICAgICA8dGlmZjpSZXNvbHV0aW9uVW5pdD4yPC90aWZmOlJlc29sdXRpb25Vbml0PgogICAgICAgICA8dGlmZjpYUmVzb2x1dGlvbj4xNDQ8L3RpZmY6WFJlc29sdXRpb24+CiAgICAgICAgIDx0aWZmOllSZXNvbHV0aW9uPjE0NDwvdGlmZjpZUmVzb2x1dGlvbj4KICAgICAgICAgPHRpZmY6T3JpZW50YXRpb24+MTwvdGlmZjpPcmllbnRhdGlvbj4KICAgICAgICAgPHRpZmY6Q29tcHJlc3Npb24+MTwvdGlmZjpDb21wcmVzc2lvbj4KICAgICAgICAgPHRpZmY6UGhvdG9tZXRyaWNJbnRlcnByZXRhdGlvbj4yPC90aWZmOlBob3RvbWV0cmljSW50ZXJwcmV0YXRpb24+CiAgICAgIDwvcmRmOkRlc2NyaXB0aW9uPgogICA8L3JkZjpSREY+CjwveDp4bXBtZXRhPgpgtfwkAAAMxUlEQVR4Ae1ca2wc1RU+d2Z2Z3fjpA4BAuERoC2N6CMqBLWlFAJqSeMXNiZRRQkCqgaqFoqEKIL+qGlo1UZQwT8CVCr0QRVSx46x3VRQTIt4KFiAIgSoFAQEAoSSkNi7szuP2+/Mzqx317PjfY3tSL7BnrnnnnvPud8959zXGKKFtIDAAgJzgICoVeY2Oie2PLFiC5G8WSFFq7V+PfwOyaxDtMUyEr/ZSI/a9bTRaJ2aO3q8vuJ6CL2VSBA60Kj8auvrCtEdWiy9j0x6qNpKzeSryaIGEu3fIlL+CgVWsBLC/ddMdaa3xUMhvQHB+9ukOL096eHx6ZzRUqoGqn9xzzIlZz0EbNpd3Yn+7RjaZZfRzv9FqWJ/S8/ximWOYFDOBlACCm/PGpnNG+nxT6OUW942LLq6pJjWjwHSeuaGwp8QOVsAEp7Rpp6JnQeElL90BB1mSZDdo+r6NdFKnd56VUD1650dqHobfhTX3Ry66yXj3H8iD72jTbAgmc2mhsmR2zzzj6lCubNf6zw/WsmlrXuyS4nFub8l2s9QSTwOqz+d6VLSSE92iN1vVpOkPmVXYvwpjIwLkJTyVUVVvn1petf7s6FIqEU9TJcswhLgdoB0qquMpFcUEj+dDcXKZQjqc1TH+RHo/+UyIcTnpe3cup02JMt5o8iHArU4qXfB5DZBsAonm4D5b30xe/abUShSTZvpXOpVKZ27wZvBjwa0fqjr6YurqdsoT0XX69fbzlRJ3SMFLWEh0qFHWnNHrnqKxrD2m7u0ktbGW/XFj2L647jJQfIjYShrumnw3Si1CgRqcFHXcmnL7RB8QUG4lA9gBA9gTRNYp8AX8QsmE55ATmFL5xdWxpE0amZzV26k3ZHNwoErc2nJXmjw9ZI+w8w5z7PefEgMEif3KWitltA6yYhu1R4IFLDIQYMsnsHleR3nzW8MnUFCyUWpUCAQOSPzaCyRtGDTJ0YpvGltK/LdVMbc1bT2FhqqH4HAgPMCbY69p3+w0nLMY2NlbZtefj7RNSX2cTarv4MjmMjcL9D13tX3X4TJ5U9xNXZcGU4ULyd4+bmkO+QciOvpTYiquyuo1zA5ECiY2Rcxvy2183NKw0Kib0Aszes8y0BJcrD5LSzaeS/1DqZhbybOrw/8vA8CFHXdeLbonjzeWq1gwRLTnq9LFM9AiyoRJOkv3dmhW0po8yQzoHdsxSL4FncEI9ZpxlHgkXsS67mI9ai5+T5XJz7Hm500I1Czo8b8l7IAVJVj1BSXGqH1S3K6diWObE8sP1rwR6IWOrbdH8is9uceGjhUTT/ywbwazvp5GgaKTx4HE+M3QYU+Pk3zgSlXqUa6pIS9fLux4Y65uscr179hoEbpeSzSNb6+cs8/eHTrPWHgaylvBmPAuU1ex/IhXWiajVmvYaA+pIxYSov9jlg4Gxom4bzgE7zzI4agZIYKpEs6B0bJB3IN6+XLb9azqQoBCUsKMdJjDN1fj4KDia5rAei6+QhUpdBRTz/dOo4stZxaGsIVfYnV1VI3at6GgVpOyUKIwEuTO7ovtP8sz4uHuCwKZW24sKmuV6zNjnjXVzQhnwJ0/tcnBUA9PhdUuFoG94YXdBlDbxXXn+n9FzRm75TtvwffkzyPYAP/Gtfpwyy8ml5aoqScVExqSkZM2lpan7iUdh2Zqc2w8oaBKg7m6HkBDF1KDffKrTOdQMAiMvBWNVjJk4PJoLqycsOv4pV/3LQj3rlKU8YvQ+F5QO70nDCTihM/LHX6zwB1jNmq2d+b3r3f56/l2TBQlYThHFnEMHn5HlFA0Kvg+2j5bFipvTA6r+V2xvdsxJriTvCtxHDhzi9fI78blKsBbafqxK8eiLdd250b2RvWXlBZZEC1mpMv7zdp2sFfuRIJUqVFx1S1Ai+v6+cHUuNdiq08gHxLniYNWOohTA4W8jrel/ITP2tIUZ/cEVv/ncvN0RfzvNX9jgyoi2iMlfy4OjXq5xpMda2RjnwQFtTCRoR13F4Ac5+pWs/GHe2QZckTEALWCkVej/JTYdnLNEV7aFei89Ja4mLDQPGs5x9UQwnfo2hQ/+4XbBH7I1zPDeaV9nrom2ELa1NvZnTfdLgCSEVMfPxzyJZ3wb2WuSCRHHcUu3tv5mvvI6j7It+Caz4/kHzhCcTCR8B3BrQ8C4Wb8N3Cr6rdIjUMVJHeJa+WE1sUV8W5fjD3Y1UJUz6T0ZxYIoA+I+lgIvlNtPslZoSbfQLLuro3x4CPltTlDzxkhvYM6u134yD0dyhkN2zTWqz78EXFRyXMFTIh+leoUUbmWc8n4aUQsxUEc3z5gq87wn9Qt8KMx61WnvW4VEjtq3i430ZA9uhEznyL6UGJdROqOoAyb9ZDgM/llgXxBtEis6gjpvlaixTnSWG74FW63lJIdQ6aR8J9LEBz1+3ySHLTNpaee6+if6QDWAsk/pZqZ6LjTcSw07BCTeArvpUoLCwvCowBL5EBBaUnyaJnA2Q2hZShpIq1R8qzYUs6gj9dLFh0JSGwrIKrqZJaK/GV0yMDanhR2wmmrf4AccMPquWy3Tx2d1Y8Kx/soOGDgQwhRBwUot/4Dwk3RzOClOcTMKR8EjXsLRsGqtKsZ+TsFZqq3YlRDwUKnc2Yeqwfl5cBQM3kkVOXC4iHVQHlg5SHyt9deciFPBoGqnLbcXdVDlVCJwwcyygK/KZyO/mSPrSzmrqX4P4Owf8wKalkXDpmoqhi6u+04Rgu45T/7UV6l8KzxhJ7UmbjPqZSKi3baR3q5FMLKdZ6Gj2CNqeB3jBQlfZ6Wkx8YDvyt9iihFsUCdOOqwdhUQFpatZbHW+/QlHsK9ADnHqmyHBMXNLSmV6lGDxwcyZhtAvS3U7y0SgnI/9wfwsy2Fe/zAzQC9e8dGM8Edvos+Skcugxu/Nesoae9mn+s2Gg/IbKnzzD9BHdXk4PyvcZ4e45RJ0pW6Hb0MGzguqDxla7CiCsCjCGQhUXQS/H7zhN5TWYuw5zyYgDlkofjVjr97TRaMnQRQYUC+7jdWATUoYysRglfTdjY/hUinBLrSQWSwO3iBvxE2jYD1IKFLzKxAS1TAsXTQWKBanSaR2kLr4YqDk50m5FyAqPylKmwXMDOuotHKfEVDohLV3R5gHKw+XVlWIdfPIG5HjFHpgaBqp41oOEuFTEzygh+XtwP/k6TQ1hvmQaHR+GtICpSNl9fhuub3EDCOaWTfYzvcbwm4XCBl8GEh2nYIxDrb9hoN6AkqdKYXkzCR/N8ixSmEnq7QP+QsKa9AJzLW1wPDPjTrsi1M2A9TTUfRkY3PuhcdJz19H9/ndwJU2yJfJ2Kyw1DNQNNJrrlx1PYE93IWQ1DBArC987iD/hePxqGste42nPw+13pcjkvNLCQ1i63KII5SdYTMbZAjFwn5OktC3X9/9cZuketMHkmlPDQLHgbbn9j52QOul5Bce/OWn7/XGViSNq8UstdHydZZ2cPvFAUKeCaH6v+/WudULIG5HXPJCAiis+CcRuHkh1/4vSA+M+fy3PhoFiYdfRuEnp8fdrERwFL6zocrSr8UjBIncg6myVqrwXdvUNkI4Vtr0Gz7qAmjYNoqGjNmFd5J5rwd1wyCNflzHxHraD/uzIxli3YRw1QBUrWrISLBlWOeaCBHfDMcpNjiOfwfK9zWOZQPB7vYS9hkyx/BqqzU/WzxhH/oCY9By049i/CCa0EhGKrYx3v0+8ZEyO4RmaKm2uqwLqAB3nRsRQCREXhi5yPNl8oYE11vfgYo+A5BoewDqIncndk4ZzXV/+wqMuTWf0WaxYr4knjI4B6qxLQJ2VcIMjt3Ybjz1ca/1eY+Rt/DU9/qxWXILRPQ4Av+Go5j3fp90BxzjVtx4IFDwc5x68k3ANqSkLyOpVcjlNSOe7ODfFyOKJrOqEOz7T4T/FzCcLV1WhB0+8xfGZKwkJdD2sRXA5KPdVqhQ5nQ9D5lkKtKhWY+LpieTitaajJVQqXUDauNnlPkRLz1I8Kw4UYwXoqkbPwpoAQVnlbQm2J8pM1lIsp9J7IFDuLW+G3qlUab7Tl1oTe96zkmfEyQS4lr2BxibDdHZwlVw6CtOdKRCosEbnqgxWUXDIGIUbiXedf7haXXEigbaL7W7qZNVv46gBylcYT8207fPx/2P4LNMqrXswbboJm/ViBDwqhw7hfsHBBMC+Cl4aGK/9CkcfUPgYQ1PVomWD7zSleOAGwetjKX0q1PG3QV4CazmXX+Q/Q1H0meb6iW+CDNhFmrvud39KJ+5iUDdro/vt4hvUCTQ4bTnhl0/Jnadv2xPrL4wJ9WYAlipWEXC4fcCvErR8ejEvv1eyDMQpbmK/5YhfX54beqW83kJ+AYEFBOYEgf8D4O8e1ACNk6sAAAAASUVORK5CYII=;fontSize=16;" parent="1" vertex="1">
          <mxGeometry x="1754" y="140" width="133.62" height="130" as="geometry" />
        </mxCell>
        <mxCell id="67Oz3dFfI7quKX-kB1Q3-30" value="&lt;font size=&quot;1&quot; style=&quot;&quot;&gt;&lt;b style=&quot;font-size: 30px;&quot;&gt;1. Cognito Security Parameters&lt;/b&gt;&lt;/font&gt;" style="text;html=1;" parent="1" vertex="1">
          <mxGeometry x="1272" y="158" width="456" height="50" as="geometry" />
        </mxCell>
        <mxCell id="67Oz3dFfI7quKX-kB1Q3-31" value="&lt;font style=&quot;font-size: 36px;&quot;&gt;Resource Owner&lt;/font&gt;" style="text;html=1;" parent="1" vertex="1">
          <mxGeometry x="30" y="15" width="210" height="50" as="geometry" />
        </mxCell>
        <mxCell id="67Oz3dFfI7quKX-kB1Q3-36" value="" style="outlineConnect=0;fontColor=#232F3E;gradientColor=#F54749;gradientDirection=north;fillColor=#C7131F;strokeColor=#ffffff;dashed=0;verticalLabelPosition=bottom;verticalAlign=top;align=center;html=1;fontSize=12;fontStyle=0;aspect=fixed;shape=mxgraph.aws4.resourceIcon;resIcon=mxgraph.aws4.business_application;" parent="1" vertex="1">
          <mxGeometry x="404" y="61" width="118" height="118" as="geometry" />
        </mxCell>
        <mxCell id="67Oz3dFfI7quKX-kB1Q3-12" value="" style="outlineConnect=0;fontColor=#232F3E;gradientColor=none;fillColor=#232F3E;strokeColor=none;dashed=0;verticalLabelPosition=bottom;verticalAlign=top;align=center;html=1;fontSize=12;fontStyle=0;aspect=fixed;pointerEvents=1;shape=mxgraph.aws4.user;" parent="1" vertex="1">
          <mxGeometry x="70" y="72" width="100" height="100" as="geometry" />
        </mxCell>
        <mxCell id="67Oz3dFfI7quKX-kB1Q3-43" value="&lt;font style=&quot;font-size: 36px;&quot;&gt;Application&lt;/font&gt;" style="text;html=1;" parent="1" vertex="1">
          <mxGeometry x="374" y="-5" width="160" height="50" as="geometry" />
        </mxCell>
        <mxCell id="EAS1CFW65RT30s3s56_A-5" value="" style="endArrow=none;dashed=1;html=1;" parent="1" edge="1">
          <mxGeometry width="50" height="50" relative="1" as="geometry">
            <mxPoint x="118" y="760" as="sourcePoint" />
            <mxPoint x="118" y="180" as="targetPoint" />
            <Array as="points">
              <mxPoint x="118" y="410" />
            </Array>
          </mxGeometry>
        </mxCell>
        <mxCell id="EAS1CFW65RT30s3s56_A-8" value="" style="endArrow=classic;startArrow=classic;html=1;" parent="1" edge="1">
          <mxGeometry width="50" height="50" relative="1" as="geometry">
            <mxPoint x="120" y="220" as="sourcePoint" />
            <mxPoint x="440" y="220" as="targetPoint" />
          </mxGeometry>
        </mxCell>
        <mxCell id="EAS1CFW65RT30s3s56_A-9" value="" style="endArrow=classic;html=1;" parent="1" edge="1">
          <mxGeometry width="50" height="50" relative="1" as="geometry">
            <mxPoint x="440" y="300" as="sourcePoint" />
            <mxPoint x="1510" y="300" as="targetPoint" />
          </mxGeometry>
        </mxCell>
        <mxCell id="EAS1CFW65RT30s3s56_A-16" value="" style="endArrow=classic;html=1;" parent="1" edge="1">
          <mxGeometry width="50" height="50" relative="1" as="geometry">
            <mxPoint x="1510" y="360" as="sourcePoint" />
            <mxPoint x="440" y="360" as="targetPoint" />
          </mxGeometry>
        </mxCell>
        <mxCell id="EAS1CFW65RT30s3s56_A-19" value="&lt;div style=&quot;font-size: 30px;&quot;&gt;&lt;b&gt;3. Authentication Credentials&lt;/b&gt;&lt;/div&gt;" style="text;html=1;align=center;" parent="1" vertex="1">
          <mxGeometry x="693" y="220" width="518" height="52" as="geometry" />
        </mxCell>
        <mxCell id="EAS1CFW65RT30s3s56_A-20" value="&lt;font size=&quot;1&quot; style=&quot;&quot;&gt;&lt;b style=&quot;font-size: 30px;&quot;&gt;4. Authorization Code&lt;/b&gt;&lt;/font&gt;" style="text;html=1;" parent="1" vertex="1">
          <mxGeometry x="690" y="310" width="362" height="50" as="geometry" />
        </mxCell>
        <mxCell id="EAS1CFW65RT30s3s56_A-22" value="" style="endArrow=classic;html=1;" parent="1" edge="1">
          <mxGeometry width="50" height="50" relative="1" as="geometry">
            <mxPoint x="440" y="430" as="sourcePoint" />
            <mxPoint x="1510" y="430" as="targetPoint" />
          </mxGeometry>
        </mxCell>
        <mxCell id="EAS1CFW65RT30s3s56_A-23" value="&lt;font size=&quot;1&quot; style=&quot;&quot;&gt;&lt;b style=&quot;font-size: 30px;&quot;&gt;5. Authorization Code&lt;/b&gt;&lt;/font&gt;" style="text;html=1;" parent="1" vertex="1">
          <mxGeometry x="700" y="380" width="240" height="50" as="geometry" />
        </mxCell>
        <mxCell id="EAS1CFW65RT30s3s56_A-24" value="" style="endArrow=classic;html=1;" parent="1" edge="1">
          <mxGeometry width="50" height="50" relative="1" as="geometry">
            <mxPoint x="1510" y="490" as="sourcePoint" />
            <mxPoint x="440" y="490" as="targetPoint" />
          </mxGeometry>
        </mxCell>
        <mxCell id="EAS1CFW65RT30s3s56_A-25" value="&lt;font size=&quot;1&quot; style=&quot;&quot;&gt;&lt;b style=&quot;font-size: 30px;&quot;&gt;6. Id Token with IAM Roles&amp;nbsp;&lt;/b&gt;&lt;/font&gt;" style="text;html=1;" parent="1" vertex="1">
          <mxGeometry x="680" y="440" width="448" height="50" as="geometry" />
        </mxCell>
        <mxCell id="EAS1CFW65RT30s3s56_A-29" value="" style="endArrow=classic;html=1;" parent="1" edge="1">
          <mxGeometry width="50" height="50" relative="1" as="geometry">
            <mxPoint x="445" y="589.5" as="sourcePoint" />
            <mxPoint x="1252" y="581" as="targetPoint" />
          </mxGeometry>
        </mxCell>
        <mxCell id="EAS1CFW65RT30s3s56_A-34" value="c" style="endArrow=classic;startArrow=classic;html=1;" parent="1" edge="1">
          <mxGeometry width="50" height="50" relative="1" as="geometry">
            <mxPoint x="1254" y="582" as="sourcePoint" />
            <mxPoint x="1510" y="582" as="targetPoint" />
          </mxGeometry>
        </mxCell>
        <mxCell id="EAS1CFW65RT30s3s56_A-35" value="&lt;div style=&quot;text-align: center; font-size: 30px;&quot;&gt;&lt;b style=&quot;background-color: initial;&quot;&gt;&lt;font style=&quot;font-size: 30px;&quot;&gt;7. Resource Access Request&lt;/font&gt;&lt;/b&gt;&lt;/div&gt;&lt;div style=&quot;text-align: center; font-size: 30px;&quot;&gt;&lt;b style=&quot;background-color: initial;&quot;&gt;&lt;font style=&quot;font-size: 30px;&quot;&gt;using Id Token with IAM&amp;nbsp; Roles&lt;/font&gt;&lt;/b&gt;&lt;/div&gt;&lt;div style=&quot;text-align: center; font-size: 30px;&quot;&gt;&lt;span style=&quot;&quot;&gt;&lt;br&gt;&lt;/span&gt;&lt;/div&gt;" style="text;html=1;" parent="1" vertex="1">
          <mxGeometry x="626" y="510" width="486" height="70" as="geometry" />
        </mxCell>
        <mxCell id="EAS1CFW65RT30s3s56_A-37" value="&lt;b style=&quot;font-size: 30px;&quot;&gt;&lt;font style=&quot;font-size: 30px;&quot;&gt;8. Validates Toke&lt;/font&gt;&lt;font style=&quot;font-size: 30px;&quot;&gt;n&lt;/font&gt;&lt;/b&gt;" style="text;html=1;" parent="1" vertex="1">
          <mxGeometry x="1272" y="516" width="274" height="50" as="geometry" />
        </mxCell>
        <mxCell id="EAS1CFW65RT30s3s56_A-46" value="&lt;font size=&quot;1&quot; style=&quot;&quot;&gt;&lt;b style=&quot;font-size: 30px;&quot;&gt;10. Resource&lt;/b&gt;&lt;/font&gt;" style="text;html=1;" parent="1" vertex="1">
          <mxGeometry x="1006" y="882" width="210" height="50" as="geometry" />
        </mxCell>
        <mxCell id="6QUuyqVyPALeSGZObQPX-28" style="edgeStyle=orthogonalEdgeStyle;rounded=0;orthogonalLoop=1;jettySize=auto;html=1;fontSize=24;" parent="1" edge="1">
          <mxGeometry relative="1" as="geometry">
            <mxPoint x="452" y="868" as="targetPoint" />
            <mxPoint x="1665" y="868" as="sourcePoint" />
          </mxGeometry>
        </mxCell>
        <mxCell id="ICl2rvUI5plPii9WH-cM-10" value="&lt;font style=&quot;&quot;&gt;&lt;b style=&quot;&quot;&gt;&lt;font style=&quot;font-size: 30px;&quot;&gt;&lt;br&gt;9. Resource Request&lt;br&gt;Using Cognito Credentials&lt;/font&gt;&lt;/b&gt;&lt;br&gt;&lt;/font&gt;" style="text;html=1;" parent="1" vertex="1">
          <mxGeometry x="1286" y="707" width="348" height="152" as="geometry" />
        </mxCell>
        <mxCell id="6QUuyqVyPALeSGZObQPX-20" style="edgeStyle=orthogonalEdgeStyle;rounded=0;orthogonalLoop=1;jettySize=auto;html=1;fontSize=24;" parent="1" source="ICl2rvUI5plPii9WH-cM-13" edge="1">
          <mxGeometry relative="1" as="geometry">
            <mxPoint x="1260" y="715" as="targetPoint" />
            <Array as="points">
              <mxPoint x="1732" y="715" />
            </Array>
          </mxGeometry>
        </mxCell>
        <mxCell id="ZaHu5K7Ul1K3lx6-StMh-16" style="edgeStyle=orthogonalEdgeStyle;rounded=0;orthogonalLoop=1;jettySize=auto;html=1;entryX=0;entryY=0.5;entryDx=0;entryDy=0;fontSize=16;" parent="1" source="ICl2rvUI5plPii9WH-cM-13" target="ZaHu5K7Ul1K3lx6-StMh-10" edge="1">
          <mxGeometry relative="1" as="geometry" />
        </mxCell>
        <mxCell id="ZaHu5K7Ul1K3lx6-StMh-17" style="edgeStyle=orthogonalEdgeStyle;rounded=0;orthogonalLoop=1;jettySize=auto;html=1;entryX=0;entryY=0.5;entryDx=0;entryDy=0;fontSize=16;" parent="1" source="ICl2rvUI5plPii9WH-cM-13" target="ZaHu5K7Ul1K3lx6-StMh-12" edge="1">
          <mxGeometry relative="1" as="geometry" />
        </mxCell>
        <mxCell id="ICl2rvUI5plPii9WH-cM-13" value="" style="shape=image;verticalLabelPosition=bottom;labelBackgroundColor=#ffffff;verticalAlign=top;aspect=fixed;imageAspect=0;image=data:image/png,iVBORw0KGgoAAAANSUhEUgAAADwAAAA8CAYAAAA6/NlyAAAPaklEQVRoQ9VaC3BU1Rn+7242T/LmFSBPQhJeVqtjHUfbjtraVkXDO6B1qtZaRQGtr1arooBaW6djZ5y2tlbbGW2rqIjWF69AeASoVUGqIIQkPAICIe/X7vb/z3/OuefevbvZRBS6Q9jN3XvPud//ff/3/+fcWHsmnxMGfFmWhT/ik/iMb/RPf1bH5Sl8XJwrz+FLeRx5sfnOp4urXXPxcT0Xn8DjqnGM69T1/Y6jsTjHsRTgfkHrG+GbU+C+FNBRbtYNdlCgP5t0dpjZ4ldspg2GTjFopUZxGz5JglScQzGu4Fm7JxJgQ5ZxgOYxvgKmByLveEHvnvh1zGFXLsYBWqvhFDPtUKUiIRbTuyacJSX9/wvaNltDeVFAW7vGnxWOakBxMH26yDte0NanCDim68YB+nSRd1ygP604Exnux4C0E9ou7azTp597q7ov74xbAML5CQKOS5ZxgI5rnK+gOYnFtPVJ2ddEDnN342aauxSqc7pOO+w/3o5M1Xc5zmBBm9Wkn+Ykap3+b9kZhqTjBB2rDdW10yN4Mqjc4QyyDY1oZwfWhlo7EbBTiicBtI7+yQatGqR+evhYvffOccSwsVBwM4QSDnd2gRUM6qaeTU7KmcBhyHR7F6vxlwsCh6HIsexjdBKJTs7hk82/rBbiNzwW0Qb7/WClpLj6fLuDVO2z9XHpZG48JGjbsZnpcFcXZFXNhLTvXATQ18dalC+jBVcqVXeizzFOt8+hCylI9GaMKGLHdiKnsefSc+p8MKZI8ENvzQboe20Fgk6KucpCwJNka+kNOtTaAiXVKyGxuBCCx5ujArG/cITEPBz9cyQuz3ONUKvQiHcrMxOCDY3QPnMWWOkZsZeWO8ZOEosH7qcjXTfU0gbFK9+A3vpGaLrnPjzHp5a1cgHBTNndmktGUsb8vZzHlKeuEPwdSzWKoenctO8XNQgpP78HfKNHQ9uca8CXkW6P4bGetraXTBSS9gJNB0MtrVCy6l/Qs7cOmhbeBSBKlDQ2VWXUjYRCAJTrdEYgABZKLcIQFVgdCDW3DJTOc7filGc4g0I5kPbg/eArKIC2qqs14KibCASYo+oFGgG32oAPIWDLJ1yE1SCyBS8Ph8GXkgyBMWMgYcwoPCcBgk1N0FffAKGODvBR7ZbX6WBJQr/ozglJesgDDLi1aq4ArAyV55Kmp1SzvRgBG0y5mSaGx65+SzB8UAKWyhRM+nx+yJgzEzJnTIVA6VhH7vUdPATtK96E1uf+BuG2NrDQSZWNRjY5/ZQaJU8JQiJBQw8jww+AvyAfWmfPBUsAttMqgumPiiZol/ZiOtjSAqVr34aePQh4wZ2SKZnvKN8RSxdBeuUU6KzdCs3PPAu9GBgIhyCQNwoyqmZA2g++B12bt8CReQsAUPLaeDw7u0GARsBDHvqlANwyixmOtUdmfVg0ngqENiwHaJnDY9e8Db0I+IAETCoI9fRABoLJe+rXcOypp+Hoo0+ALy0VfElJzDIGg9IhY9YMGPbEUjjx+2fg+G9+C/4hQ3Re67m+gLwpH9MJcD4Cnj0HGUaXls6nmdamjLH4sHC8bDy8QQtJI8PE3IH5NsNhZL7g1X+gMSVAY9UPxbs7spS3VMeH/WoJpH7rQmi44GKhENGksBW7TM3wBu0TbN6eu6F0vWD4AcxhYngOMpyhXdqT6Q8KKwTD/C8SNAEurWZJa8A4ZBjNaOymNULKh+/9JQB1OmYkVVeCMs668XrIvu1mqD/vm3hdp3bvkwIaKU5fxDncPLNKADbvwwGaMH5QUKEZjgAtJN0CZdXvQDcBvu1nCAwZQsDkvqWb1grAhxCwz+3eiiGUtgA8/xYG3N4h1cD+JUBTOZNs6yBge6kdncxOyZ5IQY/ACUVPQC6dsehBDZhNy6w4YhI9l/WfgnIHw27QxHDZOga8HwGL8oKTEFOlmxlw0z33M8MeuUhgsiXgfd+4EACvYzXg2ShHKzEAGdfM5fqOv2uZqzzEgHW88hpe18HlD7uqVKwIPdXroW/PHjFn+sMPQkJhARyfMRt82GlFmq8B+v18BGzWKpe8g9halq17V0i68dY7sLTYDI/bXM0MI2A6Liues04jGxrwuRdoSYtzybXR6PI3rnWUM/OXcG8vHJk6G0KHm0QvHygugtyXXoSWxUuhG0seMZ1BgLEOH0PA/nR26aig3x9TxuthL9DSpcvWS8DzGDCEgijNThi3bT10bKqFg3ffJ+qxjJV2fMFiEAHfdAPkLLwV6s4+nwFTFyY3FYQZJXPDL3sZ2dTYDQP09ApVCWEiQF9yIkAvLmQwmKR8AbgIAU+bxTks1eEF2hKAlXw8QJOky9e/h5LeKxj2oQSzKq+EhKE5kPuTG6C3sRFa31npKGsm0yTDlHPOhpTzzoXmP/wJgseOQ9urr+OSE4ErY+vrlS4spafMTzYq1LAIsASQ7pVSgb6j4/g585GHwF+YD8ems6TZG9R/0uHVmP8ePc5+1OLBNEm6Yv1KlPReaLj1dkjIyYXS91aAPysTwn20RsaByUAEB/irud5T2sSbCofwJhNY9vtnzIGenZ+ImxagsaRZpklx0RDq0DmNivAJ82IlhAk0/eARBfgoMuynHNYVJxK0tW0UAbaT2ilvdumKGmK4DhpuQcDDcqF842o4cMe9cGL5G6KHVhJiL+TFuztNyLwSy8ZB/ssvwP6Zc6Fnx05x874hqVC4sRqDJiMm1RY8dgwOfPu7wtRI0ikXXwS5Tz6OQDEIGOiWJY9B15tviXkyFz8kTOvoVJK03UvbaWLk9LZRpZGPWgymgyjp8RsU4IUo5aFQvmk17McmpHnZcvClEmAZdZFreA+Un8ioH4MhXlR28CepohwK3liGDM+F7h0fM8OYz1k/vk7nvzifKkFnB7Q8+1eWLl4bKCmC1Msvw9zlfO4ml961W5yetWQRA66cyY2HIzVl6VNGtjWv1FgPyy9llEWJJMA1K0UO189DwLlDoWLzGmhccBeceAUB07YKBRABJo8vh+H33QX+1DT4/MmnoH1dDSQWFcHoP/5OlB0rIRECo/OgcTpKGhm2Atid0Uvkpmx6lAop6GiEjlwkdmVw6TtlklmLGfDnUwmwk2G3vK2tI8dql1aDmS0fSXrChlUM+JaF4B+aC+Ox/jbOR8CvLtf7SFZSIhSjXAN5IyHU3i766rrvXyV6a+q3hXyTkyGxtAQBVyHDCJhyV5qR3RyIaNtOr4Mv21B3vUd9ZguGC+FI5XTdaZndowna2oKAdQ4qJxMpyM4ROoEMb1wl6vC+mxegpBFw7VpouO1OAZgYpldgxHAow8AcuPsX0I2GVLz8JaivuhbL1lY0HywhWMqSx1dA0bsroGHaHOj+GCVNZpeYCLlYsiQc6VYCMwPnN35hyrT+5XnR1jIg7qWzlj4MAQJ8FQLOVDseQjMueeOR2hElvONhyFjLBo/T8nACmhQxrABPqF2HgO9ASb/OgGlczMXiF5+DpHGlEO7uwtVUL9RNmY4p0YbGlCaajMSyUih48XkETAwjYJo3LQ2Kqt8Vn8l5xUvYsPwosRIrBLQJFyqho8c4WJwPkL30EWb4qmngl4sHjocH6NrhJfrpYSRoBjwRTar7MwPwFgbcvAwBS9Oi2hjIGwFFf38OErJzoP6a66Hz/Q/QqMqg5C1sDY1XPXZOWtI0qdgW8shhbT6qMcKzxKrMlj0xnP3owwLw4SunI2DMYVXfPUBbtcOLhUvbEeEIK7MgSU/czIDrfjpflKWJW9ZDPTYhzcq0JCmhEy1QvOwFZHks7Dr/IuGwCdlZkDHtSlGfE1D2OddfC/WVCJgk7Zc3zy20gxEmWt6HmdPiGN+vknTOo8zw4SnTUNKq8ZB54Aa9eVixrsN6EkPeVJYmoSsT4L0IOBHL0oSt6xDw7RJwqpAVLwY4l8l9+w414T3JLoRcGJuIpAkVUIxlaR8BJkkL0+Ic9dzbigZaHhcX4xS5BLioEJoQMDFspiSniB1Ma9OwIrnjob5RX/I7SXoSunIXrkzqbpoPATStidtqYB86dvPLr6Gk2bT0Fq/IQyop/HiAn0iQ+6FpmYC373BsGgwaNM6X89hiYVpNU6ZGrIcj5L1paJGx4+ECjfcZRElP3oKAP9sDewnwsKEwaUs1tNdug27cBeGNOWWjMpo0jHyEYH+DjUhWFqRfegnsm1oFXR9tF5J2dnkDZJp7TMiVgA8hYF4tRRmHjm/MLTQetdi5q1ijOkwAu3czYD/W15I/Pw3J5aXMpODReAmZkZjtptqMBz29aLjuJggePiJXTPacg5I3AX58icjhpisqjdWSN2gB2CFJYRBa+FiHW2DyNga850asl/hliFY61D46ypmztNk1EKUtH4ipMkINiNqkN3PXHm8ATGNghxJgzOFDVyDDKoejeIO1IadAr5bsRy121IMI+IytCLiuHurm3c4Slq7qDBTfJDmgyF6zpPCJ+pieR/W3+p3Pc5RH+dDNuf8ltUWBxG4zdwkuHvLHwMHLK3UdjrrvXZNNgFVEDfORTBPgMz/aDMnYEvbhWjaul0vnbKZ8MCIF4how+oU0ng+9oXffPjhwyWXgx7KkPMUTdE12fsRqyWQghM+GR/zoasi+7FJc/9LjUvsl/DcmAvxS/4mENzKVPp7DqOfAOkwe5kjDYnnrXLUG2v/5svGM2FCKIW+LAfMRT6ZxZzCESzXow1qqGxLn+Q7rd4wjZaxlKqVoNA+sdOkH0jvsY+o7lRHGeXJMNTfVdF0iRWbwuSrttC2tzxpj/HFpFNCKSXd+GQZnBkt1ap7Nu+qS5E3pG9Y57jSsuIxM1XoNlFPHC7S1LpMA2zkclWmzvZMmpOVomI7NNreAOrLsYoJN2xylSZnmxac5Oq+TAVob4brM0ZzDNIn+86RYTMs7UgxFgDeCJ1MgPqZVmqjAuMcxgqcCJDo6O6+df0bsGkelS3XGaHvHw5BEbKaZGWd+mI3+KQStfMalJJ061emjnDseAwGtZBott13HB8u0d4NjlFI30zFAW2sRsNa3on0goPth2t1IDBZ0VG8w5zdqpOfSknCtGZLnveNxEkE7b9YoNR5GptNEl6h4c9rpO1HHWZOWF33HYyCgTwt59w/aWpM2MvqOh3JvVSPN8uGoeZGrrIg04Vrj6JO/HHn3A3p16kjt0tzwuJp3V8lyNAqDAH2q5W2tSh0RdcdDdUwDq9NcT6MG7yQyHdu9ozC9KmVE9B2PGE3F6cZ0xPJRpJ8H6JXJwyN3PPphyBPsKZe37SO6nfUA/T87C4Cg6ZciRQAAAABJRU5ErkJggg==;" parent="1" vertex="1">
          <mxGeometry x="1646" y="452" width="120" height="120" as="geometry" />
        </mxCell>
        <mxCell id="6QUuyqVyPALeSGZObQPX-7" value="&lt;font style=&quot;font-size: 24px;&quot;&gt;.NET API&lt;/font&gt;" style="sketch=0;html=1;points=[];align=center;image;fontSize=12;image=img/lib/mscae/API_Management.svg;" parent="1" vertex="1">
          <mxGeometry x="1198" y="-46" width="120" height="120" as="geometry" />
        </mxCell>
        <mxCell id="ICl2rvUI5plPii9WH-cM-17" value="&lt;div style=&quot;font-size: 30px;&quot; align=&quot;center&quot;&gt;&lt;font style=&quot;font-size: 30px;&quot;&gt;AWS&lt;/font&gt;&lt;/div&gt;&lt;div style=&quot;font-size: 30px;&quot; align=&quot;center&quot;&gt;&lt;font style=&quot;font-size: 30px;&quot;&gt;Identity and Access&lt;/font&gt;&lt;/div&gt;&lt;div style=&quot;font-size: 30px;&quot; align=&quot;center&quot;&gt;&lt;font style=&quot;font-size: 30px;&quot;&gt;Management IAM&lt;/font&gt;&lt;br&gt;&lt;/div&gt;" style="text;html=1;align=center;" parent="1" vertex="1">
          <mxGeometry x="1599" y="580" width="210" height="102" as="geometry" />
        </mxCell>
        <mxCell id="6QUuyqVyPALeSGZObQPX-14" value="" style="endArrow=none;dashed=1;html=1;" parent="1" edge="1">
          <mxGeometry width="50" height="50" relative="1" as="geometry">
            <mxPoint x="450" y="1003" as="sourcePoint" />
            <mxPoint x="439" y="194" as="targetPoint" />
          </mxGeometry>
        </mxCell>
        <mxCell id="6QUuyqVyPALeSGZObQPX-25" value="" style="endArrow=none;dashed=1;html=1;dashPattern=1 3;strokeWidth=2;rounded=0;fontSize=24;" parent="1" edge="1">
          <mxGeometry width="50" height="50" relative="1" as="geometry">
            <mxPoint x="1252" y="953" as="sourcePoint" />
            <mxPoint x="1256" y="133" as="targetPoint" />
          </mxGeometry>
        </mxCell>
        <mxCell id="6QUuyqVyPALeSGZObQPX-27" value="" style="endArrow=none;dashed=1;html=1;dashPattern=1 3;strokeWidth=2;rounded=0;fontSize=24;" parent="1" edge="1">
          <mxGeometry width="50" height="50" relative="1" as="geometry">
            <mxPoint x="1526" y="1221" as="sourcePoint" />
            <mxPoint x="1505" y="108" as="targetPoint" />
          </mxGeometry>
        </mxCell>
        <mxCell id="6QUuyqVyPALeSGZObQPX-29" value="" style="endArrow=classic;html=1;" parent="1" edge="1">
          <mxGeometry width="50" height="50" relative="1" as="geometry">
            <mxPoint x="1248" y="844" as="sourcePoint" />
            <mxPoint x="1652" y="844" as="targetPoint" />
          </mxGeometry>
        </mxCell>
        <mxCell id="ZaHu5K7Ul1K3lx6-StMh-5" value="&lt;div style=&quot;font-size: 30px;&quot; align=&quot;center&quot;&gt;Parameter&lt;/div&gt;&lt;div style=&quot;font-size: 30px;&quot; align=&quot;center&quot;&gt;Store&lt;/div&gt;" style="text;html=1;align=center;" parent="1" vertex="1">
          <mxGeometry x="1688" y="268" width="210" height="102" as="geometry" />
        </mxCell>
        <mxCell id="ZaHu5K7Ul1K3lx6-StMh-19" style="edgeStyle=orthogonalEdgeStyle;rounded=0;orthogonalLoop=1;jettySize=auto;html=1;entryX=0.5;entryY=0;entryDx=0;entryDy=0;fontSize=16;" parent="1" source="ZaHu5K7Ul1K3lx6-StMh-6" target="ZaHu5K7Ul1K3lx6-StMh-10" edge="1">
          <mxGeometry relative="1" as="geometry" />
        </mxCell>
        <mxCell id="ZaHu5K7Ul1K3lx6-StMh-6" value="" style="sketch=0;points=[[0,0,0],[0.25,0,0],[0.5,0,0],[0.75,0,0],[1,0,0],[0,1,0],[0.25,1,0],[0.5,1,0],[0.75,1,0],[1,1,0],[0,0.25,0],[0,0.5,0],[0,0.75,0],[1,0.25,0],[1,0.5,0],[1,0.75,0]];outlineConnect=0;fontColor=#232F3E;gradientColor=#F54749;gradientDirection=north;fillColor=#C7131F;strokeColor=#ffffff;dashed=0;verticalLabelPosition=bottom;verticalAlign=top;align=center;html=1;fontSize=12;fontStyle=0;aspect=fixed;shape=mxgraph.aws4.resourceIcon;resIcon=mxgraph.aws4.cognito;" parent="1" vertex="1">
          <mxGeometry x="1448" y="-55" width="120" height="120" as="geometry" />
        </mxCell>
        <mxCell id="ZaHu5K7Ul1K3lx6-StMh-7" value="&lt;div style=&quot;font-size: 30px;&quot; align=&quot;center&quot;&gt;Amazon&lt;/div&gt;&lt;div style=&quot;font-size: 30px;&quot; align=&quot;center&quot;&gt;Cognito&lt;/div&gt;" style="text;html=1;align=center;" parent="1" vertex="1">
          <mxGeometry x="1396" y="68" width="210" height="82" as="geometry" />
        </mxCell>
        <mxCell id="ZaHu5K7Ul1K3lx6-StMh-8" value="" style="sketch=0;points=[[0,0,0],[0.25,0,0],[0.5,0,0],[0.75,0,0],[1,0,0],[0,1,0],[0.25,1,0],[0.5,1,0],[0.75,1,0],[1,1,0],[0,0.25,0],[0,0.5,0],[0,0.75,0],[1,0.25,0],[1,0.5,0],[1,0.75,0]];outlineConnect=0;fontColor=#232F3E;gradientColor=#60A337;gradientDirection=north;fillColor=#277116;strokeColor=#ffffff;dashed=0;verticalLabelPosition=bottom;verticalAlign=top;align=center;html=1;fontSize=12;fontStyle=0;shape=mxgraph.aws4.resourceIcon;resIcon=mxgraph.aws4.glacier;" parent="1" vertex="1">
          <mxGeometry x="1686" y="789" width="120" height="120" as="geometry" />
        </mxCell>
        <mxCell id="ZaHu5K7Ul1K3lx6-StMh-9" value="&lt;div style=&quot;font-size: 30px;&quot; align=&quot;center&quot;&gt;Amazon&lt;/div&gt;&lt;div style=&quot;font-size: 30px;&quot; align=&quot;center&quot;&gt;Simple&lt;/div&gt;&lt;div style=&quot;font-size: 30px;&quot; align=&quot;center&quot;&gt;Storage Service&lt;/div&gt;" style="text;html=1;align=center;" parent="1" vertex="1">
          <mxGeometry x="1646" y="926" width="210" height="102" as="geometry" />
        </mxCell>
        <mxCell id="ZaHu5K7Ul1K3lx6-StMh-15" style="edgeStyle=orthogonalEdgeStyle;rounded=0;orthogonalLoop=1;jettySize=auto;html=1;entryX=0.5;entryY=0;entryDx=0;entryDy=0;fontSize=16;" parent="1" source="ZaHu5K7Ul1K3lx6-StMh-10" target="ZaHu5K7Ul1K3lx6-StMh-12" edge="1">
          <mxGeometry relative="1" as="geometry" />
        </mxCell>
        <mxCell id="ZaHu5K7Ul1K3lx6-StMh-10" value="" style="shape=image;verticalLabelPosition=bottom;labelBackgroundColor=default;verticalAlign=top;aspect=fixed;imageAspect=0;image=data:image/png,iVBORw0KGgoAAAANSUhEUgAAAEgAAABICAYAAABV7bNHAAAAAXNSR0IArs4c6QAAAIRlWElmTU0AKgAAAAgABQESAAMAAAABAAEAAAEaAAUAAAABAAAASgEbAAUAAAABAAAAUgEoAAMAAAABAAIAAIdpAAQAAAABAAAAWgAAAAAAAACQAAAAAQAAAJAAAAABAAOgAQADAAAAAQABAACgAgAEAAAAAQAAAEigAwAEAAAAAQAAAEgAAAAAggmnegAAAAlwSFlzAAAWJQAAFiUBSVIk8AAADGlJREFUeAHtWgtwlcUVPvv/9yYXQ3iF8CoKDHkAgZCXD1q1opTHvRnt2PootMP4rI7OMK3tUKdq6cPRaWfUtoyPtraOVutrFCQEiKjpCCKWmwQ0GMhNAXmEiEDQPO+9/55++9/8t/99JNy80E7/nUl29+zu2bPfOXt29/yXyEkOAg4CDgIOAg4CDgIOAg4CDgIOAg4CDgIOAg4CDgIOAv9PCIivymLXEGkrSpfNYKnNEDpN0yRlskYZgtlgobWxIc8Inf/d2RUMzPvorZZzJfeXClBDydJCl9CvISG+ScQXChKjUlx4CzG/K5mrDQ69Pqv2zWMpjut3t3MOUGPxsmxN025mErcKQTn9ljh+AJMkwdukpD+fEcdfKvP7Q/FdBlM/ZwDtLV0yOY1c90LY24UQ6UmFZm4mQY3MdIAFnRaS2tFXZ+aRpNF4WNhMWE4eLG50svEYdwxb8ndd3QcfL6ivDybr01/asAO0q7TUPZom/0QTdD+EGxEjIFMr6pUseQOFQttzPqo6HNOevCIChb4CdtPlGtG3AeRCAOeydwWgTSz4ntxdlevt9IGUhxUg08dorhcwSUGMcMw7JdPaI6faX114sLorpq2fFbVlSdNvFcR3wdq+FjOc+fnPjfa7i+uqlSIGlIYNoEBJ+W1C4z8QCY8lGbZADbH8eU5N5eaXifTCwqU5LpdrDguZBSsYje0xUgotKEi2w6cc1YkOtZw4Xf/1Izs6LR695cpSx9CkOzDfA/Bt46P9mA+Fpbgmv7Zid5TWj8KwANRUWv4QfMnPLDkATBsmui8saIeLeSnoXrTPt4Nn9U2SG8RUD/pWkuHK52o3v7OG4Jh7SU2li0ZL4XkU2++maBfmdvjy7+f4N62L0lIsDClAyipKy3x/wsJvjs4PDeLE2oT6oqE5teDIiZ8JydDavo73xmLf1ZpGz1oOnYnDZNAPcmo3vhiVLYXCkALUVOp7HALdGTevgTp2S2KCMz0KqjL9TwXTaamJz+FL3Gq7wergTzgffiUP7QnjMTYE4f/S0d31y94ujh/P9+alucUGKEzxUMmA6d2Yu6vi1Uj17P+HDCCAsxrgPNzXlEz0BfzMGzD3Vzu7gzt6W5idB3zLeaN50mVC8DJctq+DFU6xtyueLOW9z9dUPrEmydYLFC6eINzurZBtXs+4ToPlwjx/5U47n97KQwIQwPFhgg0Qojd++6QhHzxyuuOVwZxaa9RzpNhXrul0D6zicvuiYHFvd3Z3Lk8G+sezrspKyxixDX5vVs+YFg4GC3P2VH1q55Gs3NuCkvVNSjNvxrr+IRonxneAdk+ypFW1NRUvXg/zjm8fTH1/sW+RpovHsID/XiFw0ZQULs/1b6mJ591QuHiGy532PlQ4QbVhi1bm+DcqxfaZ4OwHl4SmPQUOieDgsibCtCC3puL5oQZHSZxXu3FrKzcX49rwkFqtuQohJgty/zNQsuxKs277N2tP1QEhw8txIponIIzd21jqvdXWJWlxUBaktKjr4s14zpC3ETfjS1Mx4fixA6nvL/GW60KoE2usOZ6pI4zrRH7Nxnfj+TWW+h7WhFit6JDzxBdGe15fF8nBWJCAif82XgDo8ljIMBafK3DU/Hk1lRXBMF+CFeMKgCToPJeg9U1F5blm3fbvyMn2NageUCRYUXamnnGfKveWBgwQNPFdmF9xHGNDUPiG2XWbD8bRh706e3flfinlImUV5mSwJtZ53XtTF8S8/9QhgRDTjy2BsIY76guWjLPq8fmAAcLj8+54ZtDgr2b6N29LoJ8jQm7tpr3S4MXwMx1qSljInAkTxiVYubpRw2nVmmIJkeHxuBLX0iPzgADCyTUn8Zjlxq6ug33eg3rmHNYsr66yDpZ0hzUJTq279hUtvdCqWznuTjZZxS2gJ/XHAwIImllpTWTlCC/8dKhiMBbPgea5tZXPwRdG3l0QVne5fh/P64xoeR19PjPpgi7YX+y9LL6Pqg8IINKEN4YZUwNiL2/E0L7kiqCuVTinzFAKTGPB/jLvt+wi9UQeX7BoiHJ+xyrb834D1Fi4bCreSnPtTCTLtahjW3910kz/1k9w43nCkkgjEXXMFk2qQJ2VBF1lFe150n1n7xBfbiwpX4FX8t+jdFy8pDQmwUFGTo9oQ9+F+oKCNM01bbpb56lM2hT4iolAOBvgZyHGPI5YjAGHMSinme4Wj1nooBmRgX24lPspZLzX11VCveFG0cR5Ookd5hMIcoYllYSDocMF9VtOKenemX6F54LxGeAbiVlJw5gQv46YUGXfS4q04vSKsR6EPHfGM03Gx7yT6HwtFngJFl0oWEyHWzQt2NKSlZv+MlrpKZgZ4DOZ43Hv1hhvwA8QmXxDitBr+f6qBtWkgE/3TH8G/W40gTH74x/mculU5xrhJox7F1GA69S7LZBVXgflXKK6acSFyN5SZSv1GyA44zmWmD1MUjrW2UULMO7hyALxP1Kw5Oh/DueLQRdDYRdrlPZgoMy3C073b1jkVADzvT4ZCnHZiHTPo+izHFaJdySUhsS6azaywQEET5NjXxw+6KmH6tlTMLiZ3G4YkLkw1R+RQj4CXoewsKOwRHzrEogL8Ul87zqpk2xlobeyEe6C6jWEYrOElNMxfi7GLMD4iwB4VMEol4FzWQzyzNg+ZDpqNSEmx4sk8lgFDx8s6WXww5hIwty3I4ZUpS6dFi06gUU4ay4o9uOewLsrhaT8RaDU9xss8kCIpN/oPtwwmGvBnnm+sdgtXsS9r8XKfcA94VMSDo+VuTWboo44MHfx+eRJ+0SJC0BH4d91MaIjZuR2i9dAU7Ej89Dpt6HDlM+YzHs4hzk429r/MZOdw4p6KqR5XDfCoa2ERVxkTY3T44Zgd0elVXenZ5yva2KvVe8tD4doav7uChXtBIb9SOpG6tL1nbZtQnZm/WCVtKs6VaaMHpmFL4VjyUXpUsBzGdRNBkKxnfJobmBTd9KBNiIUuB4KvNpGSlrEtv6UJK+CZ24xKNSsk3srrBBhXqJuQ06fU1t5SJVT2mKNJb4l2LurwWChGmRPum5civpLdtrZyvtKrxiv8YgF4DcfOoI5C+XXpkFbWZGxEb3hiI5IqKRM0yW26D5QqqGgik8+a3s7aXRSigos+qwAYT2vzLQF8OGPwsnkjkiSpEUdl570aSsgzI/wZ8Vzk/RUm5XfYyke7wgH183fU9Ue3+llBN2Ly8pxledrNBZLsW4r9BnfNeU6LKANjv0VjcN/jXsgi6YS7wOQ+YdwypkJDAV1wxmvawuFVtllBUAHMWaa6m+3oASA1qi4b5nvJpjpL9B4vn0C89MJiX8gpPA+jtdfQ/PxYYJOeLYPVDvuOU2SZDOOjRIW+KFCHC87X6uMRQcB4gkI2ooTDqePCKEtDV86cHkUU1HGBSgxYb69kPePbaHgc/ZFJ/bsnZISQOqjG5PnNZjflXZWSlv4YPC0oOAj5hUejR/OvWrieemeBwDIbdgqbnv/s5bVhzwhdgGEf+G7/B78Dmi/0d4dmN3w1snexqq4zvjssRdqulYOsNUWyk/oy3wGoD4Nv/XkzLqKlE5X8BAI6o9zZ3h2J/NBMRYUKCt/EYQbbBO3AIBHBHc9BWAweWKqL/BOSksXN8OiroeW4VN6SYj2gZd6HG5spePbBvszFXVg6C79FqxvOWSO3UowKdC341K7GY74KOMXWLgOjARtPP6yYaWTAcYU7IjJ8A8T4xUc5rbsfH/1Z2olMQA1lfk6QfKoBsyxBQu5Fgsxg0+Kliwp/1JU5J0HEXAnoTth6morRBP4+HEBfPBwTduGhVSd1BFGOw+g0JD/jUxX5tiVWMjdGJ5oVf3kCXm342vHpdaweIBqAVCR1QiUDqG8TQoRQEcgKkNAPB1fQcdCKQqIudiOympiwppqPFSoPhKununf+GSkqqjDmkSgxLsEoZg7MYsXikrphDYlUj/DUTd54u0cDN1rfwTHANRYuqQE7qQKxJ7jdgALgh8AOM8GKfzQHP+WSBB9AGwGM0RdI3Qx0iskF+Fz9hgo1AC/DsHyFJR9QmM6LtloDjM1H2/tOp70utAjQAxAiqZ+CZZOrvtxhK6AFkb19Oszg1keBaNqZrnh8KnO9X1N2Cejr2BjAkCWjOr3NplGdpFL0+bixJkBwDLReQS2nTp+8SMDcYylcQhxmY9S/GWYxdrJHQQcBBwEHAQcBBwEHAQcBBwEHAQcBBwEHAQcBBwEHAQcBBwE/lcR+A9gvLgIRfDQzwAAAABJRU5ErkJggg==;" parent="1" vertex="1">
          <mxGeometry x="2055" y="366" width="120" height="120" as="geometry" />
        </mxCell>
        <mxCell id="ZaHu5K7Ul1K3lx6-StMh-11" value="&lt;div style=&quot;font-size: 30px;&quot; align=&quot;center&quot;&gt;Role&lt;/div&gt;" style="text;html=1;align=center;" parent="1" vertex="1">
          <mxGeometry x="2016" y="476" width="210" height="48" as="geometry" />
        </mxCell>
        <mxCell id="ZaHu5K7Ul1K3lx6-StMh-12" value="" style="shape=image;verticalLabelPosition=bottom;labelBackgroundColor=default;verticalAlign=top;aspect=fixed;imageAspect=0;image=data:image/png,iVBORw0KGgoAAAANSUhEUgAAAEgAAABKCAYAAAAYJRJMAAAAAXNSR0IArs4c6QAAAIRlWElmTU0AKgAAAAgABQESAAMAAAABAAEAAAEaAAUAAAABAAAASgEbAAUAAAABAAAAUgEoAAMAAAABAAIAAIdpAAQAAAABAAAAWgAAAAAAAACQAAAAAQAAAJAAAAABAAOgAQADAAAAAQABAACgAgAEAAAAAQAAAEigAwAEAAAAAQAAAEoAAAAA+Mn0GgAAAAlwSFlzAAAWJQAAFiUBSVIk8AAABaRJREFUeAHtnG9oHEUUwGf27nJJKaUq/acSBS9N6dXaevdFQWgQ2vyjVcQUa0GoqP0iWsRvfkhVEEFQ+kE/KIIgtkhFBXPRGuiJtNbSS0tKLCUpFrXURKiIpia93D7f29zeXTe7t9POeLez7MBl9nbevnnvd2/ezP4LY1GJCEQEIgLNI8BFuz674eFVbcm21xmDHZzzFaLHBUIOsHB2iQE7NDc7sz89nv9H1C4hQARnSbLtJOOsXVRxUOUQVWF66spDD/72w78iNhoiQlbkhAAO+YrRn1mx6rYXRfwmmbiYIOxA1ZaoCTDQURg6jF9A7NjmS33KWOz+bP9L6MGbZA3W27F6Q8QyoQiqzTm6wSEIA4yVAEqfVYGAcA4VAlRVbG1pEzm1dsM1o2o3Lw+HWgGP7ZsB5KEqnLsFc5Ba589ntq6LscS7c7OwKz2e+12tdrXaGh5BBCfOE0cxr3W1thpHx9O9q9W6pFZbQwHZcHAesaDg4u2ORCu7S61LarU1bIgtgsPY32weuteeyf2o1iW12hoSQV5wUmeGjqt1R702aUAXMv17CYCXaTrDIZ+kAE1ke/fhiuI9SrpukHSHIwWIZh/OjP0LkcNXOyGFAY4UoIX1S6kHgJUvHVQhhQWOFCA6OHVq+BjjpW4nJIqmylRenq10SMjkk7NI5SBS5gYpLHDIP2lA10GiaCkXPDO01jm6Ro7thxJAFUis1IPbU9YHF4G6wyG/lK6kabgNMnY7KcbapFr3ohQQwRgMCRj7h1U2xGyFYasjQD6/qPIh5tOf1XxuU/fdiVj87avXYM/Gs0N/ihzTLJmGRxDBaYnF8pyzR5a08JGxe/tuaZbzIv02FJANB29OWRfJOIf1yQTbIGJos2QaNsSccPC22myJwfbO0dz3zXJepN+GRJAXnLWnct+KGNlMGWlAFzK9uwiAlxM6wyGfpABNZPuexhPTjynpukHSHY4UoJ8y29YYwA/Q0wCUdJ2QwgBHCtD6wjeXTVZ6lJItKaqFFBY4UoDo4I7C8BETTHzy43pIFE32VG7PVjokZPLJWaRyEClzgxQWOOSfNCBXSLSzvM7RNXIsF/CPEkCkrBJJAH8x/NAiUHc45JfSlTRBOn7nA2vm4knouphfSN7Ui8ZFKSDiIPpwpC7MlA0xXRy+UTsjQD7EIkARIB8CPs1KImgQlwsTqZ5lPn2x05u2LPeTCVq7NCCCszvT9yFfHsuPp7fd6uUgndwuiy89MZnpfcdLJoj7pQE9me3/AE/on8Kn1zcn2xIjbpAITtJ6oIF1cm68MJnpeyuIMNxskgbEAb7DlxKsu6hukGrhkAH4MkmRAT/mZkwQ90kDShWGPgIGe9wgecDZmRr96vMgwnCzSRoQKfWCZA8rkilHjlZwyG4lgEiRGyTc3UltusIh25UBImUEyWTmy7RdWzBPPafTsKq1XSkgyjkGN56t7YC2wTCed5vdnHJB/K4M0KKEzGDeLXEHEUI9m5QAWgSHpnKTD3jNbvUMClqbNCBXOMCt2cotcXstJoMGxrZHGlALi3+CyqqzFTMHahOyO6T4+7YBQa+lAc0XS3txHr9sTeUEpzD8hdNpB6SfOcztc8oE9bs0oHVjX58vFktdAOZjbnBsx60lAJhP4M2OLfcURn6x9we9VnJNmiCho/SpWzpGc/iGtl5FOoL0cvfGrY0A+TC7GUB4VUO/YiTmq77iAk3UA6EchG/zTONDLitJ6eTmvp2/np45/AfLC3ciasz/JZdOp2PAE49XflnOp0X7EgKEZ1Nf4vMtz5BSHuMH27NLD7azftE+AieHJ8/oj1iphl09+WLxFVzrXKwnok0bwMmpqSsHRO2tRJ3fAZMbt65kLYlXOeB/TuHcGm5+xwSlHVMOoN2X8LrwoavF4mv3jR2ZCYptkR0RgYhARKAegf8A9xp1sh0dTFoAAAAASUVORK5CYII=;" parent="1" vertex="1">
          <mxGeometry x="2055" y="600" width="120" height="123.34" as="geometry" />
        </mxCell>
        <mxCell id="ZaHu5K7Ul1K3lx6-StMh-18" value="&lt;div style=&quot;font-size: 30px;&quot; align=&quot;center&quot;&gt;Permissions&lt;/div&gt;" style="text;html=1;align=center;" parent="1" vertex="1">
          <mxGeometry x="2012" y="723.34" width="210" height="53.66" as="geometry" />
        </mxCell>
        <mxCell id="pd0mzONaX6ZiK1vxAqPj-5" style="edgeStyle=orthogonalEdgeStyle;rounded=0;orthogonalLoop=1;jettySize=auto;html=1;" edge="1" parent="1" source="pd0mzONaX6ZiK1vxAqPj-1" target="67Oz3dFfI7quKX-kB1Q3-36">
          <mxGeometry relative="1" as="geometry" />
        </mxCell>
        <mxCell id="pd0mzONaX6ZiK1vxAqPj-1" value="" style="sketch=0;points=[[0,0,0],[0.25,0,0],[0.5,0,0],[0.75,0,0],[1,0,0],[0,1,0],[0.25,1,0],[0.5,1,0],[0.75,1,0],[1,1,0],[0,0.25,0],[0,0.5,0],[0,0.75,0],[1,0.25,0],[1,0.5,0],[1,0.75,0]];outlineConnect=0;fontColor=#232F3E;gradientColor=#F54749;gradientDirection=north;fillColor=#C7131F;strokeColor=#ffffff;dashed=0;verticalLabelPosition=bottom;verticalAlign=top;align=center;html=1;fontSize=12;fontStyle=0;aspect=fixed;shape=mxgraph.aws4.resourceIcon;resIcon=mxgraph.aws4.secrets_manager;" vertex="1" parent="1">
          <mxGeometry x="878" y="-59" width="120" height="120" as="geometry" />
        </mxCell>
        <mxCell id="pd0mzONaX6ZiK1vxAqPj-6" value="&lt;div style=&quot;font-size: 30px;&quot;&gt;&lt;b&gt;2. Cognito Client Secret&lt;/b&gt;&lt;/div&gt;" style="text;html=1;align=center;" vertex="1" parent="1">
          <mxGeometry x="556" y="65" width="352" height="52" as="geometry" />
        </mxCell>
      </root>
    </mxGraphModel>
  </diagram>
  <diagram id="m6Q1aQChrhdSypULtGrJ" name="Page-2">
    <mxGraphModel dx="675" dy="505" grid="1" gridSize="10" guides="1" tooltips="1" connect="1" arrows="1" fold="1" page="1" pageScale="1" pageWidth="850" pageHeight="1100" math="0" shadow="0">
      <root>
        <mxCell id="0" />
        <mxCell id="1" parent="0" />
        <mxCell id="Q5DnonQ8myLAf7R7KjuI-4" style="edgeStyle=orthogonalEdgeStyle;rounded=0;orthogonalLoop=1;jettySize=auto;html=1;" edge="1" parent="1" source="bv0uKVoPLy1zTCpmHLHZ-1" target="Q5DnonQ8myLAf7R7KjuI-3">
          <mxGeometry relative="1" as="geometry" />
        </mxCell>
        <mxCell id="bv0uKVoPLy1zTCpmHLHZ-1" value="User" style="sketch=0;outlineConnect=0;fontColor=#232F3E;gradientColor=none;fillColor=#232F3D;strokeColor=none;dashed=0;verticalLabelPosition=bottom;verticalAlign=top;align=center;html=1;fontSize=12;fontStyle=0;aspect=fixed;pointerEvents=1;shape=mxgraph.aws4.authenticated_user;" vertex="1" parent="1">
          <mxGeometry x="40" y="239.2" width="40" height="40" as="geometry" />
        </mxCell>
        <mxCell id="Q5DnonQ8myLAf7R7KjuI-7" style="edgeStyle=orthogonalEdgeStyle;rounded=0;orthogonalLoop=1;jettySize=auto;html=1;exitX=0;exitY=0.75;exitDx=0;exitDy=0;exitPerimeter=0;" edge="1" parent="1" source="bv0uKVoPLy1zTCpmHLHZ-2">
          <mxGeometry relative="1" as="geometry">
            <mxPoint x="340" y="140" as="sourcePoint" />
            <mxPoint x="190" y="245" as="targetPoint" />
            <Array as="points">
              <mxPoint x="190" y="150" />
            </Array>
          </mxGeometry>
        </mxCell>
        <mxCell id="bv0uKVoPLy1zTCpmHLHZ-2" value="Amazon Cognito" style="sketch=0;points=[[0,0,0],[0.25,0,0],[0.5,0,0],[0.75,0,0],[1,0,0],[0,1,0],[0.25,1,0],[0.5,1,0],[0.75,1,0],[1,1,0],[0,0.25,0],[0,0.5,0],[0,0.75,0],[1,0.25,0],[1,0.5,0],[1,0.75,0]];outlineConnect=0;fontColor=#232F3E;fillColor=#DD344C;strokeColor=#ffffff;dashed=0;verticalLabelPosition=top;verticalAlign=bottom;align=center;html=1;fontSize=12;fontStyle=0;aspect=fixed;shape=mxgraph.aws4.resourceIcon;resIcon=mxgraph.aws4.cognito;labelPosition=center;" vertex="1" parent="1">
          <mxGeometry x="320" y="120" width="40" height="40" as="geometry" />
        </mxCell>
        <mxCell id="x9nbZW9J_H78Tu_E-Ine-1" style="edgeStyle=orthogonalEdgeStyle;rounded=0;orthogonalLoop=1;jettySize=auto;html=1;" edge="1" parent="1" source="Q5DnonQ8myLAf7R7KjuI-1" target="Q5DnonQ8myLAf7R7KjuI-2">
          <mxGeometry relative="1" as="geometry" />
        </mxCell>
        <mxCell id="Q5DnonQ8myLAf7R7KjuI-1" value="Front-end&#xa;(Razor Page)" style="shape=image;aspect=fixed;image=data:image/svg+xml,PHN2ZyB3aWR0aD0iNDU2IiBoZWlnaHQ9IjQ1NiIgdmlld0JveD0iMCAwIDQ1NiA0NTYiIGZpbGw9Im5vbmUiIHhtbG5zPSJodHRwOi8vd3d3LnczLm9yZy8yMDAwL3N2ZyI+CjxyZWN0IHdpZHRoPSI0NTYiIGhlaWdodD0iNDU2IiBmaWxsPSIjNTEyQkQ0Ii8+CjxwYXRoIGQ9Ik04MS4yNzM4IDI5MS4zMzNDNzguMDQ5NiAyOTEuMzMzIDc1LjMwOSAyOTAuMjU5IDczLjA1MiAyODguMTFDNzAuNzk1IDI4NS45MDYgNjkuNjY2NSAyODMuMjg5IDY5LjY2NjUgMjgwLjI1OUM2OS42NjY1IDI3Ny4xNzMgNzAuNzk1IDI3NC41MjkgNzMuMDUyIDI3Mi4zMjVDNzUuMzA5IDI3MC4xMjEgNzguMDQ5NiAyNjkuMDE5IDgxLjI3MzggMjY5LjAxOUM4NC41NTE4IDI2OS4wMTkgODcuMzE5MyAyNzAuMTIxIDg5LjU3NjMgMjcyLjMyNUM5MS44ODcgMjc0LjUyOSA5My4wNDI0IDI3Ny4xNzMgOTMuMDQyNCAyODAuMjU5QzkzLjA0MjQgMjgzLjI4OSA5MS44ODcgMjg1LjkwNiA4OS41NzYzIDI4OC4xMUM4Ny4zMTkzIDI5MC4yNTkgODQuNTUxOCAyOTEuMzMzIDgxLjI3MzggMjkxLjMzM1oiIGZpbGw9IndoaXRlIi8+CjxwYXRoIGQ9Ik0yMTAuMTY3IDI4OS41MTVIMTg5LjIwOUwxMzMuOTk0IDIwMi40MDZDMTMyLjU5NyAyMDAuMjAyIDEzMS40NDEgMTk3LjkxNSAxMzAuNTI4IDE5NS41NDZIMTMwLjA0NEMxMzAuNDc0IDE5OC4wODEgMTMwLjY4OSAyMDMuNTA4IDEzMC42ODkgMjExLjgyN1YyODkuNTE1SDExMi4xNDlWMTcxSDEzNC40NzdMMTg3LjgzOSAyNTYuMDQzQzE5MC4wOTYgMjU5LjU3IDE5MS41NDcgMjYxLjk5NCAxOTIuMTkyIDI2My4zMTZIMTkyLjUxNEMxOTEuOTc3IDI2MC4xNzYgMTkxLjcwOCAyNTQuODU5IDE5MS43MDggMjQ3LjM2NVYxNzFIMjEwLjE2N1YyODkuNTE1WiIgZmlsbD0id2hpdGUiLz4KPHBhdGggZD0iTTMwMC40NDkgMjg5LjUxNUgyMzUuNTYxVjE3MUgyOTcuODdWMTg3LjY5NUgyNTQuNzQ2VjIyMS4yNDlIMjk0LjQ4NVYyMzcuODYxSDI1NC43NDZWMjcyLjkwM0gzMDAuNDQ5VjI4OS41MTVaIiBmaWxsPSJ3aGl0ZSIvPgo8cGF0aCBkPSJNMzkyLjY2NyAxODcuNjk1SDM1OS40NTdWMjg5LjUxNUgzNDAuMjcyVjE4Ny42OTVIMzA3LjE0M1YxNzFIMzkyLjY2N1YxODcuNjk1WiIgZmlsbD0id2hpdGUiLz4KPC9zdmc+Cg==;labelPosition=center;verticalLabelPosition=bottom;align=center;verticalAlign=top;fontSize=12;" vertex="1" parent="1">
          <mxGeometry x="320" y="240" width="40" height="40" as="geometry" />
        </mxCell>
        <mxCell id="Q5DnonQ8myLAf7R7KjuI-2" value="Back-end&#xa;(Web API)" style="shape=image;aspect=fixed;image=data:image/svg+xml,PHN2ZyB3aWR0aD0iNDU2IiBoZWlnaHQ9IjQ1NiIgdmlld0JveD0iMCAwIDQ1NiA0NTYiIGZpbGw9Im5vbmUiIHhtbG5zPSJodHRwOi8vd3d3LnczLm9yZy8yMDAwL3N2ZyI+CjxyZWN0IHdpZHRoPSI0NTYiIGhlaWdodD0iNDU2IiBmaWxsPSIjNTEyQkQ0Ii8+CjxwYXRoIGQ9Ik04MS4yNzM4IDI5MS4zMzNDNzguMDQ5NiAyOTEuMzMzIDc1LjMwOSAyOTAuMjU5IDczLjA1MiAyODguMTFDNzAuNzk1IDI4NS45MDYgNjkuNjY2NSAyODMuMjg5IDY5LjY2NjUgMjgwLjI1OUM2OS42NjY1IDI3Ny4xNzMgNzAuNzk1IDI3NC41MjkgNzMuMDUyIDI3Mi4zMjVDNzUuMzA5IDI3MC4xMjEgNzguMDQ5NiAyNjkuMDE5IDgxLjI3MzggMjY5LjAxOUM4NC41NTE4IDI2OS4wMTkgODcuMzE5MyAyNzAuMTIxIDg5LjU3NjMgMjcyLjMyNUM5MS44ODcgMjc0LjUyOSA5My4wNDI0IDI3Ny4xNzMgOTMuMDQyNCAyODAuMjU5QzkzLjA0MjQgMjgzLjI4OSA5MS44ODcgMjg1LjkwNiA4OS41NzYzIDI4OC4xMUM4Ny4zMTkzIDI5MC4yNTkgODQuNTUxOCAyOTEuMzMzIDgxLjI3MzggMjkxLjMzM1oiIGZpbGw9IndoaXRlIi8+CjxwYXRoIGQ9Ik0yMTAuMTY3IDI4OS41MTVIMTg5LjIwOUwxMzMuOTk0IDIwMi40MDZDMTMyLjU5NyAyMDAuMjAyIDEzMS40NDEgMTk3LjkxNSAxMzAuNTI4IDE5NS41NDZIMTMwLjA0NEMxMzAuNDc0IDE5OC4wODEgMTMwLjY4OSAyMDMuNTA4IDEzMC42ODkgMjExLjgyN1YyODkuNTE1SDExMi4xNDlWMTcxSDEzNC40NzdMMTg3LjgzOSAyNTYuMDQzQzE5MC4wOTYgMjU5LjU3IDE5MS41NDcgMjYxLjk5NCAxOTIuMTkyIDI2My4zMTZIMTkyLjUxNEMxOTEuOTc3IDI2MC4xNzYgMTkxLjcwOCAyNTQuODU5IDE5MS43MDggMjQ3LjM2NVYxNzFIMjEwLjE2N1YyODkuNTE1WiIgZmlsbD0id2hpdGUiLz4KPHBhdGggZD0iTTMwMC40NDkgMjg5LjUxNUgyMzUuNTYxVjE3MUgyOTcuODdWMTg3LjY5NUgyNTQuNzQ2VjIyMS4yNDlIMjk0LjQ4NVYyMzcuODYxSDI1NC43NDZWMjcyLjkwM0gzMDAuNDQ5VjI4OS41MTVaIiBmaWxsPSJ3aGl0ZSIvPgo8cGF0aCBkPSJNMzkyLjY2NyAxODcuNjk1SDM1OS40NTdWMjg5LjUxNUgzNDAuMjcyVjE4Ny42OTVIMzA3LjE0M1YxNzFIMzkyLjY2N1YxODcuNjk1WiIgZmlsbD0id2hpdGUiLz4KPC9zdmc+Cg==;labelPosition=center;verticalLabelPosition=bottom;align=center;verticalAlign=top;" vertex="1" parent="1">
          <mxGeometry x="520" y="240" width="40" height="40" as="geometry" />
        </mxCell>
        <mxCell id="Q5DnonQ8myLAf7R7KjuI-6" style="edgeStyle=orthogonalEdgeStyle;rounded=0;orthogonalLoop=1;jettySize=auto;html=1;entryX=0;entryY=0.25;entryDx=0;entryDy=0;startArrow=classic;startFill=1;endArrow=none;endFill=0;" edge="1" parent="1" source="Q5DnonQ8myLAf7R7KjuI-3" target="Q5DnonQ8myLAf7R7KjuI-1">
          <mxGeometry relative="1" as="geometry">
            <Array as="points">
              <mxPoint x="230" y="250" />
              <mxPoint x="230" y="250" />
            </Array>
          </mxGeometry>
        </mxCell>
        <mxCell id="Q5DnonQ8myLAf7R7KjuI-8" style="edgeStyle=orthogonalEdgeStyle;rounded=0;orthogonalLoop=1;jettySize=auto;html=1;entryX=0;entryY=0.75;entryDx=0;entryDy=0;" edge="1" parent="1" source="Q5DnonQ8myLAf7R7KjuI-3" target="Q5DnonQ8myLAf7R7KjuI-1">
          <mxGeometry relative="1" as="geometry">
            <Array as="points">
              <mxPoint x="230" y="270" />
              <mxPoint x="230" y="270" />
            </Array>
          </mxGeometry>
        </mxCell>
        <mxCell id="Q5DnonQ8myLAf7R7KjuI-3" value="Web Browser" style="sketch=0;pointerEvents=1;shadow=0;dashed=0;html=1;strokeColor=none;fillColor=#434445;aspect=fixed;labelPosition=center;verticalLabelPosition=bottom;verticalAlign=top;align=center;outlineConnect=0;shape=mxgraph.vvd.web_browser;" vertex="1" parent="1">
          <mxGeometry x="160" y="245" width="40" height="28.4" as="geometry" />
        </mxCell>
        <mxCell id="Q5DnonQ8myLAf7R7KjuI-5" style="edgeStyle=orthogonalEdgeStyle;rounded=0;orthogonalLoop=1;jettySize=auto;html=1;entryX=0;entryY=0.25;entryDx=0;entryDy=0;entryPerimeter=0;" edge="1" parent="1" target="bv0uKVoPLy1zTCpmHLHZ-2">
          <mxGeometry relative="1" as="geometry">
            <mxPoint x="170" y="245" as="sourcePoint" />
            <mxPoint x="310" y="140" as="targetPoint" />
            <Array as="points">
              <mxPoint x="170" y="130" />
            </Array>
          </mxGeometry>
        </mxCell>
        <mxCell id="x9nbZW9J_H78Tu_E-Ine-2" value="S3 Bucket" style="sketch=0;points=[[0,0,0],[0.25,0,0],[0.5,0,0],[0.75,0,0],[1,0,0],[0,1,0],[0.25,1,0],[0.5,1,0],[0.75,1,0],[1,1,0],[0,0.25,0],[0,0.5,0],[0,0.75,0],[1,0.25,0],[1,0.5,0],[1,0.75,0]];outlineConnect=0;fontColor=#232F3E;fillColor=#7AA116;strokeColor=#ffffff;dashed=0;verticalLabelPosition=top;verticalAlign=bottom;align=center;html=1;fontSize=12;fontStyle=0;aspect=fixed;shape=mxgraph.aws4.resourceIcon;resIcon=mxgraph.aws4.s3;labelPosition=center;" vertex="1" parent="1">
          <mxGeometry x="520" y="120" width="40" height="40" as="geometry" />
        </mxCell>
        <mxCell id="x9nbZW9J_H78Tu_E-Ine-3" style="edgeStyle=orthogonalEdgeStyle;rounded=0;orthogonalLoop=1;jettySize=auto;html=1;entryX=0.5;entryY=1;entryDx=0;entryDy=0;entryPerimeter=0;" edge="1" parent="1" source="Q5DnonQ8myLAf7R7KjuI-2" target="x9nbZW9J_H78Tu_E-Ine-2">
          <mxGeometry relative="1" as="geometry" />
        </mxCell>
        <mxCell id="x9nbZW9J_H78Tu_E-Ine-5" value="PutObject / GetObject" style="edgeLabel;html=1;align=center;verticalAlign=middle;resizable=0;points=[];fontSize=10;" vertex="1" connectable="0" parent="x9nbZW9J_H78Tu_E-Ine-3">
          <mxGeometry x="-0.2083" relative="1" as="geometry">
            <mxPoint as="offset" />
          </mxGeometry>
        </mxCell>
        <mxCell id="x9nbZW9J_H78Tu_E-Ine-4" value="" style="sketch=0;outlineConnect=0;fontColor=#232F3E;gradientColor=none;fillColor=#DD344C;strokeColor=none;dashed=0;verticalLabelPosition=bottom;verticalAlign=top;align=center;html=1;fontSize=12;fontStyle=0;aspect=fixed;pointerEvents=1;shape=mxgraph.aws4.temporary_security_credential;" vertex="1" parent="1">
          <mxGeometry x="545" y="170" width="20" height="20.26" as="geometry" />
        </mxCell>
      </root>
    </mxGraphModel>
  </diagram>
  <diagram id="63iZTZe4D3-HzCyvp4B1" name="Page-3">
    <mxGraphModel dx="1124" dy="842" grid="1" gridSize="10" guides="1" tooltips="1" connect="1" arrows="1" fold="1" page="1" pageScale="1" pageWidth="850" pageHeight="1100" math="0" shadow="0">
      <root>
        <mxCell id="0" />
        <mxCell id="1" parent="0" />
        <mxCell id="ze1Vc6Hf6kjqRz6ot3F7-57" style="edgeStyle=orthogonalEdgeStyle;rounded=0;orthogonalLoop=1;jettySize=auto;html=1;entryX=0.964;entryY=0.801;entryDx=0;entryDy=0;entryPerimeter=0;" edge="1" parent="1">
          <mxGeometry relative="1" as="geometry">
            <mxPoint x="681" y="639.9989473684211" as="sourcePoint" />
            <mxPoint x="599.56" y="640.02" as="targetPoint" />
            <Array as="points">
              <mxPoint x="641" y="639.42" />
            </Array>
          </mxGeometry>
        </mxCell>
        <mxCell id="ze1Vc6Hf6kjqRz6ot3F7-58" value="&lt;div style=&quot;text-align: justify;&quot;&gt;Generate&lt;/div&gt;&lt;div style=&quot;text-align: justify; font-size: 10px;&quot;&gt;Credential&lt;/div&gt;" style="edgeLabel;html=1;align=center;verticalAlign=middle;resizable=0;points=[];fontSize=10;" vertex="1" connectable="0" parent="ze1Vc6Hf6kjqRz6ot3F7-57">
          <mxGeometry x="0.0689" y="-1" relative="1" as="geometry">
            <mxPoint x="14" as="offset" />
          </mxGeometry>
        </mxCell>
        <mxCell id="ze1Vc6Hf6kjqRz6ot3F7-54" value="" style="rounded=0;whiteSpace=wrap;html=1;fillColor=#f8cecc;strokeColor=none;" vertex="1" parent="1">
          <mxGeometry x="680" y="120" width="40" height="640" as="geometry" />
        </mxCell>
        <mxCell id="ze1Vc6Hf6kjqRz6ot3F7-15" value="" style="rounded=0;whiteSpace=wrap;html=1;fillColor=#f8cecc;strokeColor=none;" vertex="1" parent="1">
          <mxGeometry x="440" y="119" width="40" height="641" as="geometry" />
        </mxCell>
        <mxCell id="ze1Vc6Hf6kjqRz6ot3F7-30" style="edgeStyle=orthogonalEdgeStyle;rounded=0;orthogonalLoop=1;jettySize=auto;html=1;entryX=1;entryY=0.5;entryDx=0;entryDy=0;" edge="1" parent="1">
          <mxGeometry relative="1" as="geometry">
            <mxPoint x="320.0000000000001" y="239.2" as="sourcePoint" />
            <mxPoint x="200.0000000000001" y="239.2" as="targetPoint" />
          </mxGeometry>
        </mxCell>
        <mxCell id="ze1Vc6Hf6kjqRz6ot3F7-31" value="&lt;div style=&quot;text-align: justify;&quot;&gt;Redirect&lt;/div&gt;&lt;div style=&quot;text-align: justify; font-size: 10px;&quot;&gt;to Cognito UI&lt;/div&gt;" style="edgeLabel;html=1;align=center;verticalAlign=middle;resizable=0;points=[];fontSize=10;" vertex="1" connectable="0" parent="ze1Vc6Hf6kjqRz6ot3F7-30">
          <mxGeometry x="-0.0177" relative="1" as="geometry">
            <mxPoint x="23" as="offset" />
          </mxGeometry>
        </mxCell>
        <mxCell id="ze1Vc6Hf6kjqRz6ot3F7-39" style="edgeStyle=orthogonalEdgeStyle;rounded=0;orthogonalLoop=1;jettySize=auto;html=1;" edge="1" parent="1" source="ze1Vc6Hf6kjqRz6ot3F7-14" target="ze1Vc6Hf6kjqRz6ot3F7-15">
          <mxGeometry relative="1" as="geometry">
            <Array as="points">
              <mxPoint x="420" y="400" />
              <mxPoint x="420" y="400" />
            </Array>
          </mxGeometry>
        </mxCell>
        <mxCell id="ze1Vc6Hf6kjqRz6ot3F7-40" value="Request&lt;div style=&quot;font-size: 10px;&quot;&gt;Tokens&amp;nbsp;&lt;/div&gt;" style="edgeLabel;html=1;align=center;verticalAlign=middle;resizable=0;points=[];fontSize=10;" vertex="1" connectable="0" parent="ze1Vc6Hf6kjqRz6ot3F7-39">
          <mxGeometry x="-0.1802" y="2" relative="1" as="geometry">
            <mxPoint x="-9" as="offset" />
          </mxGeometry>
        </mxCell>
        <mxCell id="ze1Vc6Hf6kjqRz6ot3F7-51" style="edgeStyle=orthogonalEdgeStyle;rounded=0;orthogonalLoop=1;jettySize=auto;html=1;entryX=0;entryY=0.75;entryDx=0;entryDy=0;" edge="1" parent="1">
          <mxGeometry relative="1" as="geometry">
            <mxPoint x="360.0000000000001" y="560" as="sourcePoint" />
            <mxPoint x="560" y="560" as="targetPoint" />
            <Array as="points">
              <mxPoint x="460" y="560" />
              <mxPoint x="460" y="560" />
            </Array>
          </mxGeometry>
        </mxCell>
        <mxCell id="ze1Vc6Hf6kjqRz6ot3F7-52" value="&lt;div style=&quot;text-align: justify; font-size: 10px;&quot;&gt;HTTPS&lt;/div&gt;&lt;div style=&quot;text-align: justify; font-size: 10px;&quot;&gt;with ID Token&lt;/div&gt;" style="edgeLabel;html=1;align=center;verticalAlign=middle;resizable=0;points=[];fontSize=10;" vertex="1" connectable="0" parent="ze1Vc6Hf6kjqRz6ot3F7-51">
          <mxGeometry x="0.5024" relative="1" as="geometry">
            <mxPoint x="-114" as="offset" />
          </mxGeometry>
        </mxCell>
        <mxCell id="ze1Vc6Hf6kjqRz6ot3F7-64" style="edgeStyle=orthogonalEdgeStyle;rounded=0;orthogonalLoop=1;jettySize=auto;html=1;" edge="1" parent="1" source="ze1Vc6Hf6kjqRz6ot3F7-14" target="ze1Vc6Hf6kjqRz6ot3F7-22">
          <mxGeometry relative="1" as="geometry">
            <Array as="points">
              <mxPoint x="250" y="720" />
              <mxPoint x="250" y="720" />
            </Array>
          </mxGeometry>
        </mxCell>
        <mxCell id="ze1Vc6Hf6kjqRz6ot3F7-65" value="&lt;div style=&quot;text-align: justify;&quot;&gt;HTML&lt;/div&gt;&lt;div style=&quot;text-align: justify;&quot;&gt;Page&lt;/div&gt;" style="edgeLabel;html=1;align=center;verticalAlign=middle;resizable=0;points=[];" vertex="1" connectable="0" parent="ze1Vc6Hf6kjqRz6ot3F7-64">
          <mxGeometry x="0.154" y="-1" relative="1" as="geometry">
            <mxPoint as="offset" />
          </mxGeometry>
        </mxCell>
        <mxCell id="ze1Vc6Hf6kjqRz6ot3F7-14" value="" style="rounded=0;whiteSpace=wrap;html=1;fillColor=#dae8fc;strokeColor=none;" vertex="1" parent="1">
          <mxGeometry x="320" y="120" width="40" height="640" as="geometry" />
        </mxCell>
        <mxCell id="ze1Vc6Hf6kjqRz6ot3F7-35" style="edgeStyle=orthogonalEdgeStyle;rounded=0;orthogonalLoop=1;jettySize=auto;html=1;" edge="1" parent="1">
          <mxGeometry relative="1" as="geometry">
            <mxPoint x="440" y="320" as="sourcePoint" />
            <mxPoint x="200" y="320.48" as="targetPoint" />
            <Array as="points" />
          </mxGeometry>
        </mxCell>
        <mxCell id="ze1Vc6Hf6kjqRz6ot3F7-36" value="&lt;div style=&quot;text-align: justify; font-size: 10px;&quot;&gt;Generate&amp;nbsp;&lt;/div&gt;&lt;div style=&quot;text-align: justify; font-size: 10px;&quot;&gt;Grant Code&lt;/div&gt;" style="edgeLabel;html=1;align=center;verticalAlign=middle;resizable=0;points=[];fontSize=10;" vertex="1" connectable="0" parent="ze1Vc6Hf6kjqRz6ot3F7-35">
          <mxGeometry x="0.7112" y="-1" relative="1" as="geometry">
            <mxPoint x="163" as="offset" />
          </mxGeometry>
        </mxCell>
        <mxCell id="ze1Vc6Hf6kjqRz6ot3F7-41" style="edgeStyle=orthogonalEdgeStyle;rounded=0;orthogonalLoop=1;jettySize=auto;html=1;" edge="1" parent="1" source="ze1Vc6Hf6kjqRz6ot3F7-15" target="ze1Vc6Hf6kjqRz6ot3F7-14">
          <mxGeometry relative="1" as="geometry">
            <Array as="points">
              <mxPoint x="410" y="440" />
              <mxPoint x="410" y="440" />
            </Array>
          </mxGeometry>
        </mxCell>
        <mxCell id="ze1Vc6Hf6kjqRz6ot3F7-42" value="Generate&lt;div style=&quot;font-size: 10px;&quot;&gt;JWT Tokens&lt;/div&gt;" style="edgeLabel;html=1;align=center;verticalAlign=middle;resizable=0;points=[];fontSize=10;" vertex="1" connectable="0" parent="ze1Vc6Hf6kjqRz6ot3F7-41">
          <mxGeometry x="0.1802" y="-2" relative="1" as="geometry">
            <mxPoint x="13" as="offset" />
          </mxGeometry>
        </mxCell>
        <mxCell id="ze1Vc6Hf6kjqRz6ot3F7-55" style="edgeStyle=orthogonalEdgeStyle;rounded=0;orthogonalLoop=1;jettySize=auto;html=1;entryX=0;entryY=0.5;entryDx=0;entryDy=0;" edge="1" parent="1">
          <mxGeometry relative="1" as="geometry">
            <mxPoint x="600" y="600" as="sourcePoint" />
            <mxPoint x="680" y="600" as="targetPoint" />
          </mxGeometry>
        </mxCell>
        <mxCell id="ze1Vc6Hf6kjqRz6ot3F7-56" value="&lt;div style=&quot;text-align: justify;&quot;&gt;Trade&lt;/div&gt;&lt;div style=&quot;text-align: justify; font-size: 10px;&quot;&gt;Token&lt;/div&gt;" style="edgeLabel;html=1;align=center;verticalAlign=middle;resizable=0;points=[];fontSize=10;" vertex="1" connectable="0" parent="ze1Vc6Hf6kjqRz6ot3F7-55">
          <mxGeometry x="-0.1922" y="1" relative="1" as="geometry">
            <mxPoint x="-10" as="offset" />
          </mxGeometry>
        </mxCell>
        <mxCell id="ze1Vc6Hf6kjqRz6ot3F7-60" style="edgeStyle=orthogonalEdgeStyle;rounded=0;orthogonalLoop=1;jettySize=auto;html=1;entryX=0;entryY=0.5;entryDx=0;entryDy=0;" edge="1" parent="1">
          <mxGeometry relative="1" as="geometry">
            <mxPoint x="600.5000000000002" y="680.0000000000001" as="sourcePoint" />
            <mxPoint x="799.5" y="680.0000000000001" as="targetPoint" />
          </mxGeometry>
        </mxCell>
        <mxCell id="ze1Vc6Hf6kjqRz6ot3F7-61" value="ListObjects" style="edgeLabel;html=1;align=center;verticalAlign=middle;resizable=0;points=[];" vertex="1" connectable="0" parent="ze1Vc6Hf6kjqRz6ot3F7-60">
          <mxGeometry x="-0.6336" y="2" relative="1" as="geometry">
            <mxPoint x="-3" y="2" as="offset" />
          </mxGeometry>
        </mxCell>
        <mxCell id="ze1Vc6Hf6kjqRz6ot3F7-62" style="edgeStyle=orthogonalEdgeStyle;rounded=0;orthogonalLoop=1;jettySize=auto;html=1;" edge="1" parent="1" source="ze1Vc6Hf6kjqRz6ot3F7-18" target="ze1Vc6Hf6kjqRz6ot3F7-14">
          <mxGeometry relative="1" as="geometry">
            <Array as="points">
              <mxPoint x="460" y="720" />
              <mxPoint x="460" y="720" />
            </Array>
          </mxGeometry>
        </mxCell>
        <mxCell id="ze1Vc6Hf6kjqRz6ot3F7-63" value="&lt;div style=&quot;text-align: justify;&quot;&gt;Return&lt;/div&gt;&lt;div style=&quot;text-align: justify;&quot;&gt;JSON&lt;/div&gt;" style="edgeLabel;html=1;align=center;verticalAlign=middle;resizable=0;points=[];" vertex="1" connectable="0" parent="ze1Vc6Hf6kjqRz6ot3F7-62">
          <mxGeometry x="-0.4695" y="1" relative="1" as="geometry">
            <mxPoint as="offset" />
          </mxGeometry>
        </mxCell>
        <mxCell id="ze1Vc6Hf6kjqRz6ot3F7-18" value="" style="rounded=0;whiteSpace=wrap;html=1;fillColor=#dae8fc;strokeColor=none;" vertex="1" parent="1">
          <mxGeometry x="560" y="120" width="40" height="640" as="geometry" />
        </mxCell>
        <mxCell id="ze1Vc6Hf6kjqRz6ot3F7-19" value="" style="rounded=0;whiteSpace=wrap;html=1;fillColor=#d5e8d4;strokeColor=none;" vertex="1" parent="1">
          <mxGeometry x="799" y="120" width="40" height="640" as="geometry" />
        </mxCell>
        <mxCell id="ze1Vc6Hf6kjqRz6ot3F7-32" style="edgeStyle=orthogonalEdgeStyle;rounded=0;orthogonalLoop=1;jettySize=auto;html=1;" edge="1" parent="1" source="ze1Vc6Hf6kjqRz6ot3F7-22" target="ze1Vc6Hf6kjqRz6ot3F7-15">
          <mxGeometry relative="1" as="geometry">
            <Array as="points">
              <mxPoint x="340" y="280" />
              <mxPoint x="340" y="280" />
            </Array>
          </mxGeometry>
        </mxCell>
        <mxCell id="ze1Vc6Hf6kjqRz6ot3F7-33" value="&lt;div style=&quot;text-align: justify;&quot;&gt;Enter&lt;/div&gt;&lt;div style=&quot;text-align: justify;&quot;&gt;Credentials&lt;/div&gt;" style="edgeLabel;html=1;align=center;verticalAlign=middle;resizable=0;points=[];fontSize=10;" vertex="1" connectable="0" parent="ze1Vc6Hf6kjqRz6ot3F7-32">
          <mxGeometry x="-0.5951" y="-1" relative="1" as="geometry">
            <mxPoint x="-1" as="offset" />
          </mxGeometry>
        </mxCell>
        <mxCell id="ze1Vc6Hf6kjqRz6ot3F7-49" style="edgeStyle=orthogonalEdgeStyle;rounded=0;orthogonalLoop=1;jettySize=auto;html=1;" edge="1" parent="1" source="ze1Vc6Hf6kjqRz6ot3F7-22" target="ze1Vc6Hf6kjqRz6ot3F7-14">
          <mxGeometry relative="1" as="geometry">
            <Array as="points">
              <mxPoint x="270" y="520" />
              <mxPoint x="270" y="520" />
            </Array>
          </mxGeometry>
        </mxCell>
        <mxCell id="ze1Vc6Hf6kjqRz6ot3F7-50" value="&lt;div style=&quot;text-align: justify;&quot;&gt;Access&lt;/div&gt;&lt;div style=&quot;text-align: justify;&quot;&gt;with Cookies&lt;/div&gt;" style="edgeLabel;html=1;align=center;verticalAlign=middle;resizable=0;points=[];" vertex="1" connectable="0" parent="ze1Vc6Hf6kjqRz6ot3F7-49">
          <mxGeometry x="-0.0917" relative="1" as="geometry">
            <mxPoint x="-16" as="offset" />
          </mxGeometry>
        </mxCell>
        <mxCell id="ze1Vc6Hf6kjqRz6ot3F7-22" value="" style="rounded=0;whiteSpace=wrap;html=1;fillColor=#f5f5f5;strokeColor=none;fontColor=#333333;" vertex="1" parent="1">
          <mxGeometry x="160" y="120" width="40" height="640" as="geometry" />
        </mxCell>
        <mxCell id="ze1Vc6Hf6kjqRz6ot3F7-46" style="edgeStyle=orthogonalEdgeStyle;rounded=0;orthogonalLoop=1;jettySize=auto;html=1;" edge="1" parent="1" source="ze1Vc6Hf6kjqRz6ot3F7-1" target="ze1Vc6Hf6kjqRz6ot3F7-22">
          <mxGeometry relative="1" as="geometry">
            <Array as="points">
              <mxPoint x="60" y="270" />
              <mxPoint x="60" y="520" />
            </Array>
          </mxGeometry>
        </mxCell>
        <mxCell id="ze1Vc6Hf6kjqRz6ot3F7-48" value="Books Page" style="edgeLabel;html=1;align=center;verticalAlign=middle;resizable=0;points=[];" vertex="1" connectable="0" parent="ze1Vc6Hf6kjqRz6ot3F7-46">
          <mxGeometry x="0.6279" relative="1" as="geometry">
            <mxPoint x="15" as="offset" />
          </mxGeometry>
        </mxCell>
        <mxCell id="ze1Vc6Hf6kjqRz6ot3F7-1" value="User" style="sketch=0;outlineConnect=0;fontColor=#232F3E;gradientColor=none;fillColor=#232F3D;strokeColor=none;dashed=0;verticalLabelPosition=bottom;verticalAlign=top;align=center;html=1;fontSize=12;fontStyle=0;aspect=fixed;pointerEvents=1;shape=mxgraph.aws4.authenticated_user;" vertex="1" parent="1">
          <mxGeometry y="239.2" width="40" height="40" as="geometry" />
        </mxCell>
        <mxCell id="ze1Vc6Hf6kjqRz6ot3F7-2" value="Amazon Cognito&lt;div&gt;(IDP)&lt;/div&gt;" style="sketch=0;points=[[0,0,0],[0.25,0,0],[0.5,0,0],[0.75,0,0],[1,0,0],[0,1,0],[0.25,1,0],[0.5,1,0],[0.75,1,0],[1,1,0],[0,0.25,0],[0,0.5,0],[0,0.75,0],[1,0.25,0],[1,0.5,0],[1,0.75,0]];outlineConnect=0;fontColor=#232F3E;fillColor=#DD344C;strokeColor=#ffffff;dashed=0;verticalLabelPosition=top;verticalAlign=bottom;align=center;html=1;fontSize=12;fontStyle=0;aspect=fixed;shape=mxgraph.aws4.resourceIcon;resIcon=mxgraph.aws4.cognito;labelPosition=center;" vertex="1" parent="1">
          <mxGeometry x="440" y="119" width="40" height="40" as="geometry" />
        </mxCell>
        <mxCell id="ze1Vc6Hf6kjqRz6ot3F7-3" value="Front-end&#xa;(Razor Page)" style="shape=image;aspect=fixed;image=data:image/svg+xml,PHN2ZyB3aWR0aD0iNDU2IiBoZWlnaHQ9IjQ1NiIgdmlld0JveD0iMCAwIDQ1NiA0NTYiIGZpbGw9Im5vbmUiIHhtbG5zPSJodHRwOi8vd3d3LnczLm9yZy8yMDAwL3N2ZyI+CjxyZWN0IHdpZHRoPSI0NTYiIGhlaWdodD0iNDU2IiBmaWxsPSIjNTEyQkQ0Ii8+CjxwYXRoIGQ9Ik04MS4yNzM4IDI5MS4zMzNDNzguMDQ5NiAyOTEuMzMzIDc1LjMwOSAyOTAuMjU5IDczLjA1MiAyODguMTFDNzAuNzk1IDI4NS45MDYgNjkuNjY2NSAyODMuMjg5IDY5LjY2NjUgMjgwLjI1OUM2OS42NjY1IDI3Ny4xNzMgNzAuNzk1IDI3NC41MjkgNzMuMDUyIDI3Mi4zMjVDNzUuMzA5IDI3MC4xMjEgNzguMDQ5NiAyNjkuMDE5IDgxLjI3MzggMjY5LjAxOUM4NC41NTE4IDI2OS4wMTkgODcuMzE5MyAyNzAuMTIxIDg5LjU3NjMgMjcyLjMyNUM5MS44ODcgMjc0LjUyOSA5My4wNDI0IDI3Ny4xNzMgOTMuMDQyNCAyODAuMjU5QzkzLjA0MjQgMjgzLjI4OSA5MS44ODcgMjg1LjkwNiA4OS41NzYzIDI4OC4xMUM4Ny4zMTkzIDI5MC4yNTkgODQuNTUxOCAyOTEuMzMzIDgxLjI3MzggMjkxLjMzM1oiIGZpbGw9IndoaXRlIi8+CjxwYXRoIGQ9Ik0yMTAuMTY3IDI4OS41MTVIMTg5LjIwOUwxMzMuOTk0IDIwMi40MDZDMTMyLjU5NyAyMDAuMjAyIDEzMS40NDEgMTk3LjkxNSAxMzAuNTI4IDE5NS41NDZIMTMwLjA0NEMxMzAuNDc0IDE5OC4wODEgMTMwLjY4OSAyMDMuNTA4IDEzMC42ODkgMjExLjgyN1YyODkuNTE1SDExMi4xNDlWMTcxSDEzNC40NzdMMTg3LjgzOSAyNTYuMDQzQzE5MC4wOTYgMjU5LjU3IDE5MS41NDcgMjYxLjk5NCAxOTIuMTkyIDI2My4zMTZIMTkyLjUxNEMxOTEuOTc3IDI2MC4xNzYgMTkxLjcwOCAyNTQuODU5IDE5MS43MDggMjQ3LjM2NVYxNzFIMjEwLjE2N1YyODkuNTE1WiIgZmlsbD0id2hpdGUiLz4KPHBhdGggZD0iTTMwMC40NDkgMjg5LjUxNUgyMzUuNTYxVjE3MUgyOTcuODdWMTg3LjY5NUgyNTQuNzQ2VjIyMS4yNDlIMjk0LjQ4NVYyMzcuODYxSDI1NC43NDZWMjcyLjkwM0gzMDAuNDQ5VjI4OS41MTVaIiBmaWxsPSJ3aGl0ZSIvPgo8cGF0aCBkPSJNMzkyLjY2NyAxODcuNjk1SDM1OS40NTdWMjg5LjUxNUgzNDAuMjcyVjE4Ny42OTVIMzA3LjE0M1YxNzFIMzkyLjY2N1YxODcuNjk1WiIgZmlsbD0id2hpdGUiLz4KPC9zdmc+Cg==;labelPosition=center;verticalLabelPosition=top;align=center;verticalAlign=bottom;fontSize=12;" vertex="1" parent="1">
          <mxGeometry x="320" y="120" width="40" height="40" as="geometry" />
        </mxCell>
        <mxCell id="ze1Vc6Hf6kjqRz6ot3F7-4" value="Back-end&#xa;(Web API)" style="shape=image;aspect=fixed;image=data:image/svg+xml,PHN2ZyB3aWR0aD0iNDU2IiBoZWlnaHQ9IjQ1NiIgdmlld0JveD0iMCAwIDQ1NiA0NTYiIGZpbGw9Im5vbmUiIHhtbG5zPSJodHRwOi8vd3d3LnczLm9yZy8yMDAwL3N2ZyI+CjxyZWN0IHdpZHRoPSI0NTYiIGhlaWdodD0iNDU2IiBmaWxsPSIjNTEyQkQ0Ii8+CjxwYXRoIGQ9Ik04MS4yNzM4IDI5MS4zMzNDNzguMDQ5NiAyOTEuMzMzIDc1LjMwOSAyOTAuMjU5IDczLjA1MiAyODguMTFDNzAuNzk1IDI4NS45MDYgNjkuNjY2NSAyODMuMjg5IDY5LjY2NjUgMjgwLjI1OUM2OS42NjY1IDI3Ny4xNzMgNzAuNzk1IDI3NC41MjkgNzMuMDUyIDI3Mi4zMjVDNzUuMzA5IDI3MC4xMjEgNzguMDQ5NiAyNjkuMDE5IDgxLjI3MzggMjY5LjAxOUM4NC41NTE4IDI2OS4wMTkgODcuMzE5MyAyNzAuMTIxIDg5LjU3NjMgMjcyLjMyNUM5MS44ODcgMjc0LjUyOSA5My4wNDI0IDI3Ny4xNzMgOTMuMDQyNCAyODAuMjU5QzkzLjA0MjQgMjgzLjI4OSA5MS44ODcgMjg1LjkwNiA4OS41NzYzIDI4OC4xMUM4Ny4zMTkzIDI5MC4yNTkgODQuNTUxOCAyOTEuMzMzIDgxLjI3MzggMjkxLjMzM1oiIGZpbGw9IndoaXRlIi8+CjxwYXRoIGQ9Ik0yMTAuMTY3IDI4OS41MTVIMTg5LjIwOUwxMzMuOTk0IDIwMi40MDZDMTMyLjU5NyAyMDAuMjAyIDEzMS40NDEgMTk3LjkxNSAxMzAuNTI4IDE5NS41NDZIMTMwLjA0NEMxMzAuNDc0IDE5OC4wODEgMTMwLjY4OSAyMDMuNTA4IDEzMC42ODkgMjExLjgyN1YyODkuNTE1SDExMi4xNDlWMTcxSDEzNC40NzdMMTg3LjgzOSAyNTYuMDQzQzE5MC4wOTYgMjU5LjU3IDE5MS41NDcgMjYxLjk5NCAxOTIuMTkyIDI2My4zMTZIMTkyLjUxNEMxOTEuOTc3IDI2MC4xNzYgMTkxLjcwOCAyNTQuODU5IDE5MS43MDggMjQ3LjM2NVYxNzFIMjEwLjE2N1YyODkuNTE1WiIgZmlsbD0id2hpdGUiLz4KPHBhdGggZD0iTTMwMC40NDkgMjg5LjUxNUgyMzUuNTYxVjE3MUgyOTcuODdWMTg3LjY5NUgyNTQuNzQ2VjIyMS4yNDlIMjk0LjQ4NVYyMzcuODYxSDI1NC43NDZWMjcyLjkwM0gzMDAuNDQ5VjI4OS41MTVaIiBmaWxsPSJ3aGl0ZSIvPgo8cGF0aCBkPSJNMzkyLjY2NyAxODcuNjk1SDM1OS40NTdWMjg5LjUxNUgzNDAuMjcyVjE4Ny42OTVIMzA3LjE0M1YxNzFIMzkyLjY2N1YxODcuNjk1WiIgZmlsbD0id2hpdGUiLz4KPC9zdmc+Cg==;labelPosition=center;verticalLabelPosition=top;align=center;verticalAlign=bottom;" vertex="1" parent="1">
          <mxGeometry x="560" y="120" width="40" height="40" as="geometry" />
        </mxCell>
        <mxCell id="ze1Vc6Hf6kjqRz6ot3F7-5" value="Web Browser&lt;div&gt;(Device)&lt;/div&gt;" style="sketch=0;pointerEvents=1;shadow=0;dashed=0;html=1;strokeColor=none;fillColor=#434445;aspect=fixed;labelPosition=center;verticalLabelPosition=top;verticalAlign=bottom;align=center;outlineConnect=0;shape=mxgraph.vvd.web_browser;" vertex="1" parent="1">
          <mxGeometry x="160" y="120" width="40" height="28.4" as="geometry" />
        </mxCell>
        <mxCell id="ze1Vc6Hf6kjqRz6ot3F7-6" value="S3&amp;nbsp;&lt;div&gt;Bucket&lt;/div&gt;" style="sketch=0;points=[[0,0,0],[0.25,0,0],[0.5,0,0],[0.75,0,0],[1,0,0],[0,1,0],[0.25,1,0],[0.5,1,0],[0.75,1,0],[1,1,0],[0,0.25,0],[0,0.5,0],[0,0.75,0],[1,0.25,0],[1,0.5,0],[1,0.75,0]];outlineConnect=0;fontColor=#232F3E;fillColor=#7AA116;strokeColor=#ffffff;dashed=0;verticalLabelPosition=top;verticalAlign=bottom;align=center;html=1;fontSize=12;fontStyle=0;aspect=fixed;shape=mxgraph.aws4.resourceIcon;resIcon=mxgraph.aws4.s3;labelPosition=center;" vertex="1" parent="1">
          <mxGeometry x="799" y="119" width="40" height="40" as="geometry" />
        </mxCell>
        <mxCell id="ze1Vc6Hf6kjqRz6ot3F7-23" style="edgeStyle=orthogonalEdgeStyle;rounded=0;orthogonalLoop=1;jettySize=auto;html=1;" edge="1" parent="1" source="ze1Vc6Hf6kjqRz6ot3F7-1" target="ze1Vc6Hf6kjqRz6ot3F7-22">
          <mxGeometry relative="1" as="geometry">
            <Array as="points">
              <mxPoint x="60" y="259" />
              <mxPoint x="60" y="199" />
            </Array>
          </mxGeometry>
        </mxCell>
        <mxCell id="ze1Vc6Hf6kjqRz6ot3F7-25" value="Login Page" style="edgeLabel;html=1;align=center;verticalAlign=middle;resizable=0;points=[];fontSize=10;" vertex="1" connectable="0" parent="ze1Vc6Hf6kjqRz6ot3F7-23">
          <mxGeometry x="0.3428" relative="1" as="geometry">
            <mxPoint as="offset" />
          </mxGeometry>
        </mxCell>
        <mxCell id="ze1Vc6Hf6kjqRz6ot3F7-24" style="edgeStyle=orthogonalEdgeStyle;rounded=0;orthogonalLoop=1;jettySize=auto;html=1;" edge="1" parent="1" source="ze1Vc6Hf6kjqRz6ot3F7-22">
          <mxGeometry relative="1" as="geometry">
            <mxPoint x="321" y="200" as="targetPoint" />
            <Array as="points">
              <mxPoint x="320" y="200" />
              <mxPoint x="320" y="200" />
            </Array>
          </mxGeometry>
        </mxCell>
        <mxCell id="ze1Vc6Hf6kjqRz6ot3F7-34" value="&lt;div style=&quot;text-align: justify; font-size: 10px;&quot;&gt;Access&amp;nbsp;&lt;/div&gt;" style="edgeLabel;html=1;align=center;verticalAlign=middle;resizable=0;points=[];fontSize=10;" vertex="1" connectable="0" parent="ze1Vc6Hf6kjqRz6ot3F7-24">
          <mxGeometry x="-0.3006" y="-1" relative="1" as="geometry">
            <mxPoint x="-14" as="offset" />
          </mxGeometry>
        </mxCell>
        <mxCell id="ze1Vc6Hf6kjqRz6ot3F7-37" style="edgeStyle=orthogonalEdgeStyle;rounded=0;orthogonalLoop=1;jettySize=auto;html=1;" edge="1" parent="1">
          <mxGeometry relative="1" as="geometry">
            <mxPoint x="200.0000000000001" y="360.0125" as="sourcePoint" />
            <mxPoint x="320" y="360" as="targetPoint" />
            <Array as="points">
              <mxPoint x="260" y="359.2" />
            </Array>
          </mxGeometry>
        </mxCell>
        <mxCell id="ze1Vc6Hf6kjqRz6ot3F7-38" value="&lt;div style=&quot;text-align: justify;&quot;&gt;Send&amp;nbsp;&lt;/div&gt;&lt;div style=&quot;text-align: justify; font-size: 10px;&quot;&gt;Grant Code&lt;/div&gt;" style="edgeLabel;html=1;align=center;verticalAlign=middle;resizable=0;points=[];fontSize=10;" vertex="1" connectable="0" parent="ze1Vc6Hf6kjqRz6ot3F7-37">
          <mxGeometry x="-0.2949" y="1" relative="1" as="geometry">
            <mxPoint x="-6" as="offset" />
          </mxGeometry>
        </mxCell>
        <mxCell id="ze1Vc6Hf6kjqRz6ot3F7-44" style="edgeStyle=orthogonalEdgeStyle;rounded=0;orthogonalLoop=1;jettySize=auto;html=1;" edge="1" parent="1" source="ze1Vc6Hf6kjqRz6ot3F7-14">
          <mxGeometry relative="1" as="geometry">
            <mxPoint x="200" y="480" as="targetPoint" />
            <Array as="points">
              <mxPoint x="290" y="480" />
              <mxPoint x="290" y="480" />
            </Array>
          </mxGeometry>
        </mxCell>
        <mxCell id="ze1Vc6Hf6kjqRz6ot3F7-45" value="&lt;div style=&quot;text-align: justify;&quot;&gt;Generate&lt;/div&gt;&lt;div style=&quot;text-align: justify; font-size: 10px;&quot;&gt;Cookies&lt;/div&gt;" style="edgeLabel;html=1;align=center;verticalAlign=middle;resizable=0;points=[];fontSize=10;" vertex="1" connectable="0" parent="ze1Vc6Hf6kjqRz6ot3F7-44">
          <mxGeometry x="0.1114" relative="1" as="geometry">
            <mxPoint x="34" as="offset" />
          </mxGeometry>
        </mxCell>
        <mxCell id="ze1Vc6Hf6kjqRz6ot3F7-53" value="IAM&lt;div&gt;(STS)&lt;/div&gt;" style="sketch=0;points=[[0,0,0],[0.25,0,0],[0.5,0,0],[0.75,0,0],[1,0,0],[0,1,0],[0.25,1,0],[0.5,1,0],[0.75,1,0],[1,1,0],[0,0.25,0],[0,0.5,0],[0,0.75,0],[1,0.25,0],[1,0.5,0],[1,0.75,0]];outlineConnect=0;fontColor=#232F3E;fillColor=#DD344C;strokeColor=#ffffff;dashed=0;verticalLabelPosition=top;verticalAlign=bottom;align=center;html=1;fontSize=12;fontStyle=0;aspect=fixed;shape=mxgraph.aws4.resourceIcon;resIcon=mxgraph.aws4.identity_and_access_management;labelPosition=center;" vertex="1" parent="1">
          <mxGeometry x="680" y="120" width="40" height="40" as="geometry" />
        </mxCell>
        <mxCell id="ze1Vc6Hf6kjqRz6ot3F7-66" value="1" style="ellipse;whiteSpace=wrap;html=1;aspect=fixed;fillColor=#fad7ac;strokeColor=#b46504;" vertex="1" parent="1">
          <mxGeometry x="91" y="172" width="20" height="20" as="geometry" />
        </mxCell>
        <mxCell id="ze1Vc6Hf6kjqRz6ot3F7-67" value="8" style="ellipse;whiteSpace=wrap;html=1;aspect=fixed;fillColor=#fad7ac;strokeColor=#b46504;" vertex="1" parent="1">
          <mxGeometry x="289" y="442" width="20" height="20" as="geometry" />
        </mxCell>
        <mxCell id="ze1Vc6Hf6kjqRz6ot3F7-68" value="2" style="ellipse;whiteSpace=wrap;html=1;aspect=fixed;fillColor=#fad7ac;strokeColor=#b46504;" vertex="1" parent="1">
          <mxGeometry x="297" y="213" width="20" height="20" as="geometry" />
        </mxCell>
        <mxCell id="ze1Vc6Hf6kjqRz6ot3F7-69" value="3" style="ellipse;whiteSpace=wrap;html=1;aspect=fixed;fillColor=#fad7ac;strokeColor=#b46504;" vertex="1" parent="1">
          <mxGeometry x="251" y="259.2" width="20" height="20" as="geometry" />
        </mxCell>
        <mxCell id="ze1Vc6Hf6kjqRz6ot3F7-71" value="4" style="ellipse;whiteSpace=wrap;html=1;aspect=fixed;fillColor=#fad7ac;strokeColor=#b46504;" vertex="1" parent="1">
          <mxGeometry x="417" y="297" width="20" height="20" as="geometry" />
        </mxCell>
        <mxCell id="ze1Vc6Hf6kjqRz6ot3F7-73" value="5" style="ellipse;whiteSpace=wrap;html=1;aspect=fixed;fillColor=#fad7ac;strokeColor=#b46504;" vertex="1" parent="1">
          <mxGeometry x="238" y="338" width="20" height="20" as="geometry" />
        </mxCell>
        <mxCell id="ze1Vc6Hf6kjqRz6ot3F7-75" value="6" style="ellipse;whiteSpace=wrap;html=1;aspect=fixed;fillColor=#fad7ac;strokeColor=#b46504;" vertex="1" parent="1">
          <mxGeometry x="396" y="367" width="20" height="20" as="geometry" />
        </mxCell>
        <mxCell id="ze1Vc6Hf6kjqRz6ot3F7-76" value="7" style="ellipse;whiteSpace=wrap;html=1;aspect=fixed;fillColor=#fad7ac;strokeColor=#b46504;" vertex="1" parent="1">
          <mxGeometry x="417" y="406" width="20" height="20" as="geometry" />
        </mxCell>
        <mxCell id="ze1Vc6Hf6kjqRz6ot3F7-78" value="1" style="ellipse;whiteSpace=wrap;html=1;aspect=fixed;fillColor=#1A1A1A;strokeColor=#1A1A1A;fontColor=#FFFFFF;" vertex="1" parent="1">
          <mxGeometry x="95" y="494" width="20" height="20" as="geometry" />
        </mxCell>
        <mxCell id="ze1Vc6Hf6kjqRz6ot3F7-79" value="2" style="ellipse;whiteSpace=wrap;html=1;aspect=fixed;fillColor=#1A1A1A;strokeColor=#1A1A1A;fontColor=#FFFFFF;" vertex="1" parent="1">
          <mxGeometry x="247" y="497" width="20" height="20" as="geometry" />
        </mxCell>
        <mxCell id="ze1Vc6Hf6kjqRz6ot3F7-80" value="8" style="ellipse;whiteSpace=wrap;html=1;aspect=fixed;fillColor=#1A1A1A;strokeColor=#1A1A1A;fontColor=#FFFFFF;" vertex="1" parent="1">
          <mxGeometry x="265" y="690" width="20" height="20" as="geometry" />
        </mxCell>
        <mxCell id="ze1Vc6Hf6kjqRz6ot3F7-83" value="3" style="ellipse;whiteSpace=wrap;html=1;aspect=fixed;fillColor=#1A1A1A;strokeColor=#1A1A1A;fontColor=#FFFFFF;" vertex="1" parent="1">
          <mxGeometry x="405" y="535" width="20" height="20" as="geometry" />
        </mxCell>
        <mxCell id="ze1Vc6Hf6kjqRz6ot3F7-84" value="4" style="ellipse;whiteSpace=wrap;html=1;aspect=fixed;fillColor=#1A1A1A;strokeColor=#1A1A1A;fontColor=#FFFFFF;" vertex="1" parent="1">
          <mxGeometry x="611" y="566" width="20" height="20" as="geometry" />
        </mxCell>
        <mxCell id="ze1Vc6Hf6kjqRz6ot3F7-85" value="5" style="ellipse;whiteSpace=wrap;html=1;aspect=fixed;fillColor=#1A1A1A;strokeColor=#1A1A1A;fontColor=#FFFFFF;" vertex="1" parent="1">
          <mxGeometry x="656" y="608" width="20" height="20" as="geometry" />
        </mxCell>
        <mxCell id="ze1Vc6Hf6kjqRz6ot3F7-86" value="6" style="ellipse;whiteSpace=wrap;html=1;aspect=fixed;fillColor=#1A1A1A;strokeColor=#1A1A1A;fontColor=#FFFFFF;" vertex="1" parent="1">
          <mxGeometry x="612" y="653" width="20" height="20" as="geometry" />
        </mxCell>
        <mxCell id="ze1Vc6Hf6kjqRz6ot3F7-87" value="7" style="ellipse;whiteSpace=wrap;html=1;aspect=fixed;fillColor=#1A1A1A;strokeColor=#1A1A1A;fontColor=#FFFFFF;" vertex="1" parent="1">
          <mxGeometry x="520" y="691" width="20" height="20" as="geometry" />
        </mxCell>
        <mxCell id="ze1Vc6Hf6kjqRz6ot3F7-92" value="" style="sketch=0;outlineConnect=0;fontColor=#232F3E;gradientColor=none;fillColor=#DD344C;strokeColor=none;dashed=0;verticalLabelPosition=bottom;verticalAlign=top;align=center;html=1;fontSize=12;fontStyle=0;aspect=fixed;pointerEvents=1;shape=mxgraph.aws4.temporary_security_credential;" vertex="1" parent="1">
          <mxGeometry x="766" y="688" width="20" height="20.26" as="geometry" />
        </mxCell>
      </root>
    </mxGraphModel>
  </diagram>
</mxfile>
